<?xml version="1.0" encoding="UTF-8" standalone="no"?>
<!-- Created with Inkscape (http://www.inkscape.org/) -->

<svg
   xmlns:dc="http://purl.org/dc/elements/1.1/"
   xmlns:cc="http://creativecommons.org/ns#"
   xmlns:rdf="http://www.w3.org/1999/02/22-rdf-syntax-ns#"
   xmlns:svg="http://www.w3.org/2000/svg"
   xmlns="http://www.w3.org/2000/svg"
   xmlns:sodipodi="http://sodipodi.sourceforge.net/DTD/sodipodi-0.dtd"
   xmlns:inkscape="http://www.inkscape.org/namespaces/inkscape"
   width="12.920715mm"
   height="6.4112043mm"
   viewBox="0 0 12.920717 6.4112043"
   version="1.1"
   id="svg8"
   inkscape:version="0.92.5 (2060ec1f9f, 2020-04-08)"
   sodipodi:docname="icon_small.svg"
   inkscape:export-filename="/home/max/Notes/Projects/Cordage/icon.png"
   inkscape:export-xdpi="406.39999"
   inkscape:export-ydpi="406.39999">
  <defs
     id="defs2" />
  <sodipodi:namedview
     id="base"
     pagecolor="#ffffff"
     bordercolor="#666666"
     borderopacity="1.0"
     inkscape:pageopacity="0"
     inkscape:pageshadow="2"
     inkscape:zoom="45.254832"
     inkscape:cx="8.0305857"
     inkscape:cy="15.184653"
     inkscape:document-units="mm"
     inkscape:current-layer="g904"
     showgrid="false"
     inkscape:snap-global="false"
     fit-margin-left="0.2"
     fit-margin-top="0.2"
     fit-margin-bottom="0.2"
     fit-margin-right="0.2"
     inkscape:window-width="1920"
     inkscape:window-height="1016"
     inkscape:window-x="0"
     inkscape:window-y="27"
     inkscape:window-maximized="1" />
  <metadata
     id="metadata5">
    <rdf:RDF>
      <cc:Work
         rdf:about="">
        <dc:format>image/svg+xml</dc:format>
        <dc:type
           rdf:resource="http://purl.org/dc/dcmitype/StillImage" />
        <dc:title />
      </cc:Work>
    </rdf:RDF>
  </metadata>
  <g
     inkscape:label="Layer 1"
     inkscape:groupmode="layer"
     id="layer1"
     transform="translate(-51.014319,-174.90233)">
    <g
       id="g904"
       transform="rotate(-180,91.028431,160.16062)">
      <path
         sodipodi:nodetypes="cssssccssssccc"
         inkscape:connector-curvature="0"
         id="path828"
         d="m 118.88071,144.35164 c 1.66391,-0.48049 2.84814,-0.74956 5.48169,-0.0934 0.83071,0.20698 2.52359,1.28068 3.35644,-0.33808 0.69582,-1.35244 0.78596,-2.43591 0.20193,-3.55116 -0.51338,-0.98035 -1.4566,-0.94217 -2.87028,-0.59485 -1.35478,0.33285 -3.25857,0.67342 -6.28751,0.1989 0.48147,0.3821 0.30066,0.52968 0.018,0.75548 2.89392,0.57849 6.01337,0.003 6.43436,-0.12139 0.55538,-0.16428 1.63457,-0.70346 2.14891,0.20133 0.4715,0.82944 0.38242,1.93589 -0.0161,2.64192 -0.35004,0.62008 -1.59343,0.34946 -2.31314,0.0795 -0.98735,-0.37034 -4.02407,-1.12153 -6.38337,0.12949 0.53779,0.003 0.74689,0.0858 0.22915,0.69217 z"
         style="fill:#bb7015;fill-opacity:1;stroke:none;stroke-width:0.05291666px;stroke-linecap:butt;stroke-linejoin:miter;stroke-opacity:1" />
      <path
         sodipodi:nodetypes="cssscsssssscsssc"
         inkscape:connector-curvature="0"
         id="path826"
         d="m 130.05544,139.93619 c -1.52378,0.72746 -1.4718,0.34699 -2.65014,0.22566 -1.78067,-0.18335 -3.48545,-1.16754 -5.42119,-0.68893 -2.43809,0.60281 -2.0697,4.44811 -0.009,5.17794 2.23807,0.79262 3.21558,-0.85263 4.66729,-0.86689 1.52649,-0.0778 2.30341,0.26319 3.4734,0.88655 0.27876,0.14852 0.009,-0.22441 0.1426,-0.3812 0.11558,-0.13588 0.43287,-0.42411 0.20089,-0.48076 -0.93456,-0.2282 -1.26615,-0.47779 -2.47863,-0.73694 -1.24407,-0.2659 -2.35015,-0.24577 -3.2969,0.4114 -3.39365,2.35564 -4.69941,-4.24915 0.0727,-3.08958 0.86076,0.20916 1.50436,0.60463 3.02545,0.58844 0.93877,0.0256 2.17597,0.34363 2.85393,-0.42767 0.25983,-0.29559 -0.2016,-0.2448 -0.20778,-0.50924 -0.003,-0.14272 -0.0727,-0.26224 -0.17153,-0.21168 z"
         style="fill:#397ea5;fill-opacity:1;stroke:none;stroke-width:0.05291666px;stroke-linecap:butt;stroke-linejoin:miter;stroke-opacity:1" />
      <path
         sodipodi:nodetypes="csccsscccsccssccccssccc"
         inkscape:connector-curvature="0"
         id="path838"
         d="m 128.3363,142.03645 c -0.0434,-0.59728 -0.0433,-1.06111 -0.33535,-1.61873 -0.27883,-0.53245 -0.77817,-0.77285 -1.32651,-0.76294 l 0.0236,0.54997 c 0.26555,0.0602 0.48491,0.10822 0.48706,0.46536 0.005,0.77943 0.46087,1.80108 0.0647,2.50737 -0.12742,0.22716 -0.34862,0.60527 -0.6475,0.63509 l 0.0501,0.92548 c 0.44722,-0.0572 0.89829,-0.19524 1.22675,-0.81124 0.35781,-0.67104 0.50208,-1.27149 0.45711,-1.89036 z m -4.98808,-1.88949 c -1.31411,0.0884 -2.6836,0.19415 -4.67877,-0.19429 -0.31416,-0.16235 0.31466,0.2689 0.1488,0.45129 -0.21252,0.23369 -0.40002,0.26886 -0.0977,0.35713 1.7627,0.51479 3.57241,0.21158 4.63243,-0.0248 z m -0.0142,3.05995 c -1.53758,-0.10709 -2.96995,-0.39972 -4.65212,0.36941 -0.3749,0.20561 -0.008,0.34216 0.0643,0.49009 0.0932,0.18989 -0.21255,0.45244 -0.0509,0.40628 1.4274,-0.40759 2.75182,-0.67889 4.79105,-0.43494 z"
         style="fill:#bb7015;fill-opacity:1;stroke:none;stroke-width:0.05291666px;stroke-linecap:butt;stroke-linejoin:miter;stroke-opacity:1" />
      <path
         style="opacity:1;fill:#353535;fill-opacity:1;stroke-width:0.05291667"
         d="m 126.96584,140.76772 c -0.34188,0.0383 -0.66087,0.0164 -0.99001,-0.0643 -0.3791,-0.093 -0.66978,-0.14843 -0.95344,-0.27185 -0.33671,-0.14651 -0.66186,-0.29264 -1.03698,-0.30144 -0.43387,-0.0102 -0.90276,-0.11382 -1.33423,-0.0556 -0.24909,0.0335 -0.50047,0.0525 -0.77366,0.0438 -0.11977,-0.004 -0.37319,-0.0332 -0.52368,-0.1382 0.0367,-0.135 0.10131,-0.23916 0.2763,-0.29363 0.34352,-0.10694 0.21895,-0.12593 0.89775,-0.19781 0.35557,-0.0376 0.64997,-0.0656 0.95114,-0.0298 0.18923,0.0225 0.49443,0.0854 0.78512,0.14144 0.29069,0.0561 0.56813,0.13085 0.90583,0.24938 0.3377,0.11854 0.72662,0.17638 1.09332,0.29713 0.3667,0.12075 0.55166,0.33974 0.70254,0.62094 z m 1.23138,0.3619 c 0.12095,0.38548 0.0995,0.82125 0.0733,1.20356 -0.0248,0.3624 -0.1211,0.69309 -0.24509,0.99341 -0.072,0.17428 -0.15525,0.35454 -0.26065,0.50644 -0.24318,0.35049 -0.44824,0.5262 -0.8373,0.64532 -0.38683,0.11843 -1.12426,0.37994 -1.40773,0.13558 -0.10415,-0.0898 0.0186,-0.21566 0.0794,-0.25237 0.18365,-0.11099 0.41121,-0.22654 0.83288,-0.36024 0.82278,-0.26089 1.06678,-0.94537 1.15547,-1.41612 0.0692,-0.36731 0.0267,-0.95952 -0.0193,-1.17607 -0.0377,-0.17745 -0.11066,-0.43618 -0.21857,-0.67539 -0.1429,-0.31677 -0.17434,-0.53606 -0.5796,-0.69477 -0.43377,-0.16987 -0.60232,-0.11967 -0.7203,-0.19796 -0.10172,-0.0461 -0.2906,-0.10224 -0.0898,-0.14368 0.40186,-0.0829 0.86604,-0.0942 1.24473,0.0735 0.25429,0.11257 0.67584,0.66609 0.75644,0.80464 0.0638,0.10971 0.16201,0.31798 0.23612,0.55418 z m -2.68095,-0.20007 c 0.39029,0.15095 0.80273,0.22647 1.21931,0.28125 0.19751,0.026 0.43585,0.19077 0.47705,0.3572 0.0906,0.36618 -0.008,0.73716 -0.10157,1.1054 -0.0498,0.19542 -0.38328,0.0886 -0.53363,0.0939 -0.46077,0.0163 -0.88219,0.13845 -1.34089,0.22284 -0.27938,0.0514 -0.63417,0.0582 -0.93831,0.002 -0.67391,-0.12487 -1.22376,-0.0868 -1.90618,-0.14783 -0.23154,-0.0207 -0.35778,-0.30962 -0.37283,-0.53013 -0.0229,-0.33487 0.008,-0.67017 0.26486,-0.91842 0.18095,-0.17466 0.35488,-0.16987 0.5932,-0.21988 0.7979,-0.16744 1.49142,-0.15359 2.27822,-0.38369 0.12013,0.0459 0.24025,0.0919 0.36038,0.13783 z m -3.96503,0.34356 c -0.11667,0.32286 -0.11374,0.64171 -0.0862,1.03085 0.0147,0.20818 0.0332,0.32556 0.10146,0.5185 -0.23461,0.0301 -0.72961,0.0475 -0.96117,-0.0112 -0.17742,-0.4803 -0.13711,-0.92723 0.0233,-1.34475 0.0259,-0.0675 0.0796,-0.15455 0.18687,-0.18333 0.0783,-0.021 0.1889,-0.0256 0.28186,-0.025 0.093,6.1e-4 0.36025,-0.0143 0.45388,0.0149 z m 5.35389,1.91168 c -0.14401,0.17479 -0.4138,0.32702 -0.60401,0.44448 -0.76586,0.47294 -1.69498,0.74603 -2.18012,0.93038 -0.69288,0.26328 -1.3402,0.15354 -1.62324,0.0437 -0.42127,-0.16345 -0.36323,-0.13012 -0.57189,-0.23745 -0.0936,-0.0481 -0.26029,-0.13504 -0.19537,-0.16397 0.64101,-0.28564 1.34475,-0.0379 1.84863,-0.14044 0.44561,-0.074 0.83567,-0.29547 1.20443,-0.54013 0.15386,-0.10208 0.40322,-0.18065 0.61494,-0.21735 0.24108,-0.0418 0.47798,-0.0879 0.72128,-0.10986 0.34843,-0.0314 0.3993,-0.0196 0.51249,-0.0336 0.11319,-0.014 0.23904,-0.0444 0.27286,0.0242 z m 3.75647,-3.43391 c 0.0503,-0.0909 -0.0936,-0.23953 -0.13971,-0.25031 -0.37915,0.20776 -0.60749,0.3459 -1.04358,0.437 -0.4642,0.11989 -0.76662,0.16003 -1.24476,0.1669 -0.33422,-0.34953 -0.66228,-0.67589 -1.14622,-0.76075 -0.44817,-0.0882 -1.0857,-0.0179 -1.49641,0.17049 -0.29132,0.13364 -0.57887,-0.0292 -0.85417,-0.092 -0.59242,-0.13507 -1.01662,-0.2418 -1.77012,-0.20702 -0.75349,0.0348 -1.72668,0.037 -1.99247,0.39736 -0.26582,0.3604 -0.36265,0.43162 -0.82611,0.33202 -0.46346,-0.0996 -0.64427,-0.0354 -1.40371,-0.19217 -0.0691,-0.0275 -0.26949,0.13912 -0.18352,0.21431 0.22501,0.1272 0.2774,0.0975 0.51668,0.15613 0.228,0.0559 0.45099,0.0914 0.85527,0.10711 0.33577,0.0131 0.7092,0.0488 0.8706,0.066 0.33858,0.0361 0.49703,5.9e-4 0.80528,0.0348 0.31008,0.0346 0.43832,0.0213 0.58412,-0.004 0.21348,-0.037 0.43787,0.0112 0.66289,-0.005 0.45587,-0.0321 0.51224,0.0426 0.88364,0.0168 0.3714,-0.0258 0.69138,0.075 0.98999,0.23669 -0.15382,0.0617 -0.15875,0.0993 -0.36085,0.13268 -0.31181,0.0516 -0.78724,0.0165 -1.34312,0.11006 -0.55589,0.0935 -1.28957,0.17825 -2.00964,0.15013 -0.64276,-0.0251 -1.21003,-0.16745 -1.86307,-0.26537 -0.31018,-0.0465 -0.47003,-0.172 -0.794,-0.11724 -0.11665,0.0197 0.0448,0.35166 0.11126,0.36361 0.55279,0.0993 0.95035,0.15349 1.29588,0.19399 0.0933,0.0109 0.38235,0.0701 0.33483,0.21618 -0.0952,0.2553 -0.13674,0.38714 -0.12496,0.66169 -0.007,0.32114 0.10289,0.56422 0.10659,0.88142 -0.22409,0.11831 -0.42266,0.19719 -0.68185,0.26585 -0.52529,0.13915 -0.76387,0.20928 -0.91819,0.27309 -0.0573,0.0237 -0.21036,0.36636 -0.10932,0.34141 0.63623,-0.1571 0.70454,-0.25599 1.33207,-0.40338 0.20879,-0.049 0.62345,-0.13693 0.84586,-0.13432 0.64401,0.008 1.15696,-0.06 1.79381,-0.0218 l 0.8752,0.0525 c 0.34593,0.0208 0.89181,-3e-4 1.16989,0.119 -0.73842,0.42814 -0.95305,0.39086 -1.23862,0.41717 -0.22717,0.0209 -0.92461,-0.0239 -1.0283,-0.0309 -0.25421,-0.018 -0.88195,0.10534 -1.21509,0.13044 -0.84564,0.0636 -1.10696,0.0501 -1.89873,0.36136 -0.0829,0.0326 -0.56043,0.20498 -0.47816,0.30929 0.0696,0.0882 0.22367,0.21588 0.3258,0.18712 0.81491,-0.22952 0.89054,-0.51992 1.74146,-0.51474 0.2975,0.002 0.65505,0.23714 0.90737,0.36974 0.47309,0.24861 1.05702,0.60733 1.59476,0.59213 0.44895,-0.0127 0.93492,0.0239 1.35329,-0.17599 0.17198,-0.0822 0.37476,-0.2247 0.55263,-0.24577 0.46479,0.31256 0.93136,0.38141 1.48817,0.31216 0.53769,-0.0669 1.1146,-0.22618 1.42314,-0.70675 0.0732,-0.11398 0.16824,-0.21139 0.44911,-0.14216 0.78373,0.19318 1.20867,0.39734 1.94847,0.7039 0.0406,0.0168 0.17954,-0.13892 0.13266,-0.22504 -0.0554,-0.1017 -0.15667,-0.1339 -0.17308,-0.16234 -0.18083,-0.218 -1.36909,-0.54473 -1.61673,-0.60077 -0.24764,-0.056 -0.46809,-0.20221 -0.47329,-0.43225 -5.6e-4,-0.0246 0.0558,-0.22359 0.34965,-0.19026 0.2252,0.0256 0.81451,0.15245 0.879,0.16749 0.25811,0.0602 1.10266,0.39776 1.12935,0.37406 0.0776,-0.0689 0.26464,-0.12184 0.21105,-0.15373 -0.58831,-0.35017 -1.38383,-0.52312 -2.02493,-0.7442 -0.18414,-0.0635 -0.0305,-0.30043 0.007,-0.44264 0.14136,-0.53628 -0.0646,-0.72325 -0.016,-1.26217 0.0119,-0.13223 0.32187,-0.15968 0.43765,-0.16225 0.48815,-0.0108 0.60355,0.0392 1.04718,-0.17394 0.38275,-0.18385 0.26042,-0.0348 0.59592,-0.29961 0.0414,-0.0327 0.0794,-0.30844 -0.0243,-0.32508 -0.0904,-0.0147 -0.26899,0.10724 -0.33685,0.16734 -0.31827,0.28186 -0.86549,0.33335 -1.20988,0.36745 -0.26652,0.0264 -0.59984,0.0278 -0.76799,-0.11605 -0.10383,-0.0889 0.0725,-0.33395 0.21421,-0.33995 0.22421,-0.009 0.53128,-0.0879 0.66554,-0.10837 0.39711,-0.0607 0.80733,-0.23952 0.97557,-0.32119 0.16825,-0.0817 0.28487,-0.11931 0.34489,-0.22773 z"
         id="path879"
         inkscape:connector-curvature="0"
         sodipodi:nodetypes="cssssscsssssscccssssssssssssssccccssssssscccccccssscccccccsssccccccccccsssssssssssssssssssssscccssssssscsssssssssscsssssssssssssssssssssssssccccc" />
    </g>
  </g>
</svg>
