<?xml version="1.0" encoding="UTF-8" standalone="no"?>
<!-- Created with Inkscape (http://www.inkscape.org/) -->

<svg
   xmlns:dc="http://purl.org/dc/elements/1.1/"
   xmlns:cc="http://creativecommons.org/ns#"
   xmlns:rdf="http://www.w3.org/1999/02/22-rdf-syntax-ns#"
   xmlns:svg="http://www.w3.org/2000/svg"
   xmlns="http://www.w3.org/2000/svg"
   xmlns:sodipodi="http://sodipodi.sourceforge.net/DTD/sodipodi-0.dtd"
   xmlns:inkscape="http://www.inkscape.org/namespaces/inkscape"
   width="80mm"
   height="40mm"
   viewBox="0 0 80 40"
   version="1.1"
   id="svg8"
   inkscape:version="0.92.5 (2060ec1f9f, 2020-04-08)"
   sodipodi:docname="icon.svg"
   inkscape:export-filename="/home/max/Notes/Projects/Cordage/icon.png"
   inkscape:export-xdpi="406.39999"
   inkscape:export-ydpi="406.39999">
  <defs
     id="defs2" />
  <sodipodi:namedview
     id="base"
     pagecolor="#ffffff"
     bordercolor="#666666"
     borderopacity="1.0"
     inkscape:pageopacity="0.0"
     inkscape:pageshadow="2"
     inkscape:zoom="4"
     inkscape:cx="136.37422"
     inkscape:cy="60.088179"
     inkscape:document-units="mm"
     inkscape:current-layer="g904"
     showgrid="false"
     inkscape:snap-global="false"
     fit-margin-left="10"
     fit-margin-top="10"
     fit-margin-bottom="10"
     fit-margin-right="10"
     inkscape:window-width="1920"
     inkscape:window-height="1016"
     inkscape:window-x="1920"
     inkscape:window-y="27"
     inkscape:window-maximized="1" />
  <metadata
     id="metadata5">
    <rdf:RDF>
      <cc:Work
         rdf:about="">
        <dc:format>image/svg+xml</dc:format>
        <dc:type
           rdf:resource="http://purl.org/dc/dcmitype/StillImage" />
        <dc:title />
      </cc:Work>
    </rdf:RDF>
  </metadata>
  <g
     inkscape:label="Layer 1"
     inkscape:groupmode="layer"
     id="layer1"
     transform="translate(-49.392805,-142.09978)">
    <g
       id="g904"
       transform="rotate(-180,91.028431,160.16062)">
      <path
         sodipodi:nodetypes="cssssccsssscc"
         inkscape:connector-curvature="0"
         id="path828"
         d="m 61.216602,170.65363 c 8.319529,-2.40247 17.003192,-4.99022 30.170922,-1.70934 4.15354,1.0349 12.617966,6.4034 16.782186,-1.69041 3.47913,-6.76222 3.92981,-12.17958 1.00968,-17.7558 -2.56693,-4.90175 -7.48423,-4.20514 -14.468358,-2.15576 -6.7208,1.97212 -18.44653,2.15076 -33.60074,-0.27676 2.40734,1.91053 1.50329,2.6484 0.08977,3.77739 14.469616,2.89246 32.34704,-0.0574 34.45197,-0.68005 2.77689,-0.82139 8.172868,-2.99106 10.744528,1.53286 2.3575,4.14719 1.9121,9.67944 -0.0807,13.20961 -1.7502,3.10042 -7.967118,1.7473 -11.565688,0.39754 -4.93675,-1.85169 -22.882825,-4.36526 -34.67932,1.88988 2.68895,0.0159 3.73441,0.42921 1.14575,3.46084 z"
         style="fill:#bb7015;fill-opacity:1;stroke:none;stroke-width:0.26458332px;stroke-linecap:butt;stroke-linejoin:miter;stroke-opacity:1" />
      <path
         sodipodi:nodetypes="cssscsssssscsssc"
         inkscape:connector-curvature="0"
         id="path826"
         d="m 120.88627,146.58982 c -4.71685,5.05612 -8.39109,2.89477 -14.51809,2.60324 -9.164408,-0.43604 -16.717693,-6.13756 -26.065968,-3.64833 -12.015521,3.19945 -11.163048,21.7373 -0.85079,25.36259 11.173816,3.92818 15.78329,-4.8851 23.336478,-4.33447 7.63245,-0.38884 11.51702,1.31598 17.36699,4.43278 1.3938,0.7426 0.0461,-1.12208 0.71297,-1.90602 0.57793,-0.67937 1.22891,-1.85746 0.069,-2.14069 -4.67277,-1.14098 -5.56108,-2.88755 -11.75004,-3.2462 -4.7304,-0.27412 -10.397144,-0.86998 -15.762168,1.88456 -19.555934,10.04051 -26.197868,-22.15512 -0.242081,-16.56171 4.329641,0.93303 7.697219,3.60782 15.302679,3.52685 4.68588,0.11007 12.34395,-0.86745 16.07781,-3.94952 1.51758,-1.25268 -1.78264,-0.1571 -1.81354,-1.4792 -0.0167,-0.7136 -0.36356,-1.31115 -0.85763,-1.05838 z"
         style="fill:#397ea5;fill-opacity:1;stroke:none;stroke-width:0.26458332px;stroke-linecap:butt;stroke-linejoin:miter;stroke-opacity:1" />
      <path
         sodipodi:nodetypes="ssccsscccsccssccccsscc"
         inkscape:connector-curvature="0"
         id="path838"
         d="m 111.25704,157.83526 c -0.21698,-2.98639 -0.21669,-5.30554 -1.67675,-8.09365 -1.39415,-2.66222 -3.89088,-3.86422 -6.63257,-3.81471 l 0.11811,2.74985 c 1.32775,0.30093 2.24731,1.17125 3.12982,2.72372 2.3575,4.14719 2.58089,9.10587 0.58809,12.63604 -0.64019,1.13409 -2.70221,2.53025 -4.1966,2.67937 l 0.25057,4.62741 c 2.23612,-0.28595 4.49149,-0.97623 6.13379,-4.05623 1.78903,-3.3552 2.51037,-6.35742 2.28554,-9.4518 z m -24.940421,-9.44745 c -6.57053,0.44217 -15.230456,0.61994 -25.206287,-1.32225 -1.570794,-0.81173 1.573279,1.34453 0.743976,2.25646 -1.062602,1.16846 -2.000054,1.34428 -0.488696,1.78566 8.813527,2.57393 19.674531,1.40867 24.97463,0.22678 z m -0.07087,15.29975 c -7.687905,-0.53543 -17.027633,-1.32623 -25.438485,2.51943 -1.874491,1.02803 -0.04165,1.7108 0.321439,2.45043 0.4661,0.94947 -1.062755,2.26219 -0.254598,2.03142 7.136958,-2.03798 15.936913,-4.06684 26.133089,-2.84705 z"
         style="fill:#bb7015;fill-opacity:1;stroke:none;stroke-width:0.26458332px;stroke-linecap:butt;stroke-linejoin:miter;stroke-opacity:1" />
      <path
         style="opacity:1;fill:#353535;fill-opacity:1;stroke-width:0.26458335"
         d="m 84.575318,144.58196 c -3.428425,-0.0125 -7.054512,0.6892 -9.694825,3.02539 -0.643592,0.71933 -1.602787,0.97014 -2.532715,0.76562 -3.70346,-0.4364 -7.390364,-1.04786 -11.040038,-1.80127 -0.332033,-0.13174 -0.997178,0.17894 -0.583984,0.54004 1.081377,0.6113 2.39491,0.69058 3.581543,1.021 1.629229,0.30901 3.29332,0.75059 4.556152,1.8877 0.231258,0.31727 0.690558,0.0982 0.339356,-0.18799 -0.279074,-0.26355 -0.348166,-0.77084 0.169921,-0.72559 0.992058,-0.15715 1.95047,0.13917 2.781738,0.64258 0.50312,0.10964 0.814995,-0.50655 1.352015,-0.38543 1.029695,-0.14202 1.989192,0.25737 2.914587,0.62273 0.567648,0.008 0.84827,-0.72975 1.468263,-0.63086 1.364807,-0.12821 2.22277,1.51748 3.581055,1.24952 0.494897,-0.2995 -0.08511,-0.82545 -0.48877,-0.78516 -0.165723,-4e-4 -0.858418,-0.16415 -0.399415,-0.34961 1.00772,-0.39742 2.208872,-0.29486 3.161132,-0.89941 1.109098,-0.30658 2.224263,0.17752 3.055833,0.89444 0.424747,0.36225 1.154922,0.46659 1.454422,0.88339 -0.80293,0.6067 -1.893805,-0.24032 -2.687012,0.30859 -1.02944,0.55908 -2.42673,-0.0455 -3.414063,0.68555 -2.397107,0.82754 -4.995537,0.82396 -7.513672,1.10059 -1.110385,0.0704 -2.199528,-1.032 -3.26416,-0.31153 -2.030698,-0.0525 -4.021061,-0.66601 -6.034667,-0.96582 -1.552919,-0.21872 -3.111532,-0.71339 -4.6875,-0.61474 -0.50873,0.25374 0.170236,0.73288 0.495117,0.73437 3.151901,0.84138 6.381089,1.44735 9.629882,1.75391 0.478183,-0.0365 1.448518,-0.011 1.206055,0.73437 -0.485442,1.30267 -0.795077,2.67145 -0.734982,4.07223 -0.03535,1.63861 0.09485,3.30882 0.11389,4.92728 -1.143345,0.6037 -2.526666,0.59921 -3.764661,0.95689 -2.531646,0.64092 -5.103751,1.33402 -7.395985,2.61489 -0.302607,0.067 -0.626255,0.69636 -0.126953,0.66699 3.034518,-0.84322 5.964042,-2.20178 9.143066,-2.40136 1.05484,-0.19285 2.002645,-0.79443 3.11311,-0.73357 3.220245,-0.0116 6.497683,-0.28323 9.6823,-0.0975 0.374993,0.0474 0.68721,0.70565 0.144043,0.67481 -1.181583,0.64726 -1.819248,2.03553 -3.078613,2.53564 -0.934672,0.0988 -1.958917,0.16543 -2.854005,-0.13721 0.07842,-0.69308 0.752835,-1.16434 0.92334,-1.79248 -0.316532,-0.28624 -0.650377,0.47628 -0.93036,0.65501 -0.660305,0.57903 -1.083675,1.63402 -2.102005,1.4945 -4.220889,0.40384 -8.464254,1.09981 -12.44615,2.5961 -0.386393,0.22086 -1.301418,0.44638 -1.088378,1.04834 0.470306,0.26511 1.09754,-0.19443 1.605513,-0.23913 3.889589,-1.19384 7.844785,-2.4274 11.93306,-2.52796 1.423375,0.13421 2.312223,1.46945 3.565865,2.02161 2.22819,1.27756 4.773353,2.03352 7.355908,1.91386 2.158402,-0.0137 4.427495,0.0731 6.391285,-0.98128 0.865827,-0.29917 1.74483,-0.91452 2.599622,-1.01582 2.23369,1.50218 4.98482,2.18734 7.657642,1.83067 2.58694,-0.29742 5.39421,-1.19556 6.83935,-3.52881 0.38867,-0.52242 0.80018,-1.37108 1.60205,-1.08056 3.81352,0.71076 7.23723,2.64868 10.72168,4.28271 0.3835,-0.25521 -0.30691,-0.68415 -0.45849,-0.94678 -0.90414,-1.08998 -2.25002,-1.59574 -3.49561,-2.16397 -1.32147,-0.81461 -2.5322,-1.93736 -3.17236,-3.36484 0.0557,-0.31003 0.60998,0.10455 0.77685,0.15284 1.27426,0.64585 2.14544,1.91025 3.4375,2.4956 0.5007,-0.18273 -0.16032,-0.77387 -0.30859,-1.02978 -0.16686,-0.19449 -0.58745,-0.82791 -0.0281,-0.54476 1.34806,0.31821 3.8493,1.4572 3.98273,1.3387 0.38778,-0.34437 -0.50457,-0.62123 -0.73242,-0.8164 -2.8532,-1.63859 -6.07729,-2.42815 -9.18994,-3.39405 -0.84655,-0.39965 -0.39181,-1.52977 -0.30518,-2.23144 0.77225,-2.55093 0.0452,-5.25129 0.0127,-7.85156 0.31781,-0.55306 1.21432,-0.29509 1.76217,-0.39312 2.34627,0.0364 4.71578,-0.32032 6.83646,-1.36811 1.85052,-0.86014 3.8087,-1.61567 5.42432,-2.88428 0.19551,-0.16119 0.65975,-0.68808 0.16113,-0.76807 -0.4347,-0.0707 -0.76288,0.21781 -1.10693,0.5127 -0.58047,0.49754 -1.36093,1.20269 -2.14697,1.02099 -0.35336,-0.0817 -0.18781,-1.24507 -0.51172,-0.75732 -0.42089,0.63377 -0.53007,1.52629 -1.34473,1.74609 -0.39079,0.12032 -1.23586,0.58363 -1.39599,-0.019 0.0521,-0.22424 0.21681,-0.89577 -0.24366,-0.67822 -0.94602,0.8363 -1.85023,2.08179 -3.22949,2.10254 -0.36907,-0.23259 0.11433,-0.8459 0.16992,-1.16797 0.61882,-1.23012 2.1425,-1.36117 3.25147,-1.88358 1.02426,-0.66451 1.88755,-1.60503 2.99365,-2.11105 0.23218,-0.22803 0.65064,-0.93228 0.16504,-1.0459 -1.82216,0.99852 -3.43642,2.46601 -5.53223,2.90381 -2.23084,0.57619 -4.57572,0.39173 -6.87353,0.4248 -1.60622,-1.67974 -3.61278,-3.04972 -5.93848,-3.45752 -2.15381,-0.42422 -4.420739,-0.049 -6.463872,0.68702 -1.31373,0.80423 -2.765427,-0.19215 -4.104985,-0.4087 -2.82662,-0.73316 -5.745627,-1.0958 -8.666505,-1.04687 z m 2.433595,0.79004 c 0.931378,-0.0377 1.779643,0.34521 2.557615,0.80273 0.598925,0.21547 1.097075,-0.42699 1.720705,-0.21631 1.259523,0.055 2.433128,0.53673 3.530273,1.11084 1.26171,0.43597 2.719977,0.15752 3.851345,0.98511 0.893572,0.37836 1.919759,0.22131 2.803109,0.67771 1.51232,0.54456 3.20152,1.44146 3.9559,2.84744 -1.70936,0.1915 -3.36658,-0.35527 -4.97216,-0.89698 -1.924569,-0.32433 -3.586389,-1.45113 -5.494482,-1.85299 -1.788515,-0.41479 -3.489797,-1.23797 -5.365962,-1.24286 -2.168023,-0.0901 -4.35438,-0.36282 -6.519938,-0.14194 -1.234232,0.23653 -2.298585,1.22426 -3.628825,0.91095 -0.895715,-0.17245 -1.96929,-0.0731 -2.72176,-0.59796 0.65891,-0.66466 1.646253,-1.02494 2.539063,-1.23047 0.960657,-0.10747 1.886225,0.42632 2.819822,0.396 0.25428,-0.4132 -0.517042,-0.73239 -0.626952,-1.11963 -0.07439,-0.28297 0.596655,-0.20497 0.800292,-0.28467 1.116423,-0.12833 2.304728,-0.0802 3.378908,0.33594 0.447097,0.0959 0.485982,-0.56266 0.96045,-0.4624 0.137187,-0.0163 0.274627,-0.0194 0.412597,-0.0205 z m 14.382327,1.05469 c 0.3945,0.0432 0.945,-0.0831 1.25635,0.10449 -0.50944,1.00888 -1.87371,1.50304 -2.852442,0.85312 -0.50863,-0.23034 -1.452942,-0.51068 -0.448832,-0.71836 0.664784,-0.18005 1.358924,-0.22778 2.044924,-0.23925 z m 3.41895,0.28759 c 1.92673,0.09 3.12097,1.8718 4.25036,3.20656 0.85503,0.95146 0.98879,2.25363 1.5011,3.38036 0.45851,1.96734 0.14707,4.01845 0.3666,6.01781 -0.0235,0.6429 0.33227,1.29075 -0.13152,1.84265 -0.65178,0.94781 -0.46358,2.17327 -1.09396,3.1244 -0.47494,0.81437 -0.64473,1.8834 -1.30323,2.53223 -0.65625,0.57905 -0.7522,1.60169 -1.52392,2.10986 -0.72906,0.70093 -1.66671,1.06635 -2.6626,1.1167 -0.6504,0.19065 -1.13934,0.73102 -1.86252,0.73593 -1.36085,0.19045 -3.015332,0.53511 -4.094517,-0.55478 -0.50085,-0.47103 -1.28394,-0.92321 -1.490722,-1.59814 0.873752,-1.13257 2.620097,-1.13966 3.789559,-0.49561 0.65812,0.84564 1.60481,1.63561 2.69482,1.79102 0.50816,-0.17857 -0.1122,-0.68836 -0.35547,-0.82032 -0.47426,-0.35722 -1.48253,-0.79594 -1.19971,-1.53613 0.84191,-0.88914 2.16972,-0.36748 3.07129,0.14209 0.31242,0.23272 1.19073,0.17839 0.91114,-0.3706 -0.35382,-0.44115 -1.17928,-0.21035 -1.4336,-0.68409 0.59498,-0.97268 1.97086,-1.21649 2.54932,-2.1914 0.42266,-0.72876 0.7376,-1.69239 1.51855,-2.0918 0.22261,-0.0152 1.01353,0.32135 0.77491,-0.17724 -0.46944,-0.34436 -1.12495,-0.78391 -0.8169,-1.46485 0.0553,-0.65597 0.79246,-1.2492 0.3125,-1.90185 -0.38613,-1.20759 0.0554,-2.58911 -0.46728,-3.74463 -0.60979,-1.13512 -0.78266,-2.47998 -1.48975,-3.58545 -0.23986,-0.58406 -0.91959,-1.1511 -0.79004,-1.81006 0.38212,-0.24404 1.48394,-0.32562 1.1582,-1.02246 -0.52644,-0.63863 -1.41484,-0.11102 -1.97265,0.20752 -0.7741,-0.0174 -1.54288,-0.47622 -2.0957,-0.98877 -0.11453,-0.5552 0.72399,-0.77088 1.10302,-1.00391 0.24867,-0.10051 0.5137,-0.16273 0.78272,-0.16504 z m -16.458017,1.95166 c 0.94429,0.071 1.64149,0.90832 2.541505,1.04688 0.30738,-0.16679 0.261293,-0.71332 0.767578,-0.61817 0.83542,-0.0344 1.761957,0.15228 2.4292,0.65332 -0.84079,0.33748 -1.914423,-0.39436 -2.664553,0.22852 -0.214387,0.75979 -1.08685,0.17891 -1.547362,0.0151 -0.661643,-0.36612 -1.533615,-0.58872 -1.995605,-1.18555 0.123275,-0.11209 0.306327,-0.15311 0.469237,-0.14014 z m 26.035167,1.25391 c 0.40002,-0.094 0.94794,0.15125 0.54931,0.60644 -0.33989,0.74581 -1.03821,1.33441 -1.88912,1.18695 -0.40362,-0.0548 -1.08387,0.10075 -1.30082,-0.20501 0.11814,-0.8107 0.74905,-1.48555 1.59951,-1.47711 0.34467,-0.0552 0.69196,-0.0994 1.04112,-0.11127 z m -15.894542,0.99414 c 2.311922,0.89417 4.735062,1.58591 7.222662,1.66602 1.11251,0.39325 1.18253,1.82496 1.54443,2.77392 0.41647,2.19542 0.47405,4.51256 -0.0571,6.69971 -0.31873,1.15139 -1.72186,0.79805 -2.60688,0.90245 -2.73102,0.0211 -5.534197,-0.0193 -8.138737,0.9037 -1.762527,0.56939 -3.636827,0.49256 -5.411205,0.0336 -4.01295,-0.61563 -8.067355,-0.99823 -12.12395,-1.12055 -1.329372,-0.35868 -2.102992,-1.8353 -2.208505,-3.14027 -0.118807,-1.98466 -0.236082,-4.29289 1.15333,-5.89049 1.191705,-0.89397 2.802725,-0.9425 4.19954,-1.30248 4.739445,-0.92768 9.631038,-0.9791 14.29167,-2.34206 0.711588,0.27214 1.423178,0.54427 2.134765,0.81641 z m -23.931152,2.71191 c 0.564815,0.0173 1.236185,-0.0204 1.734375,0.13623 -0.931185,0.40948 -2.129135,0.13472 -2.949218,0.78028 -0.04197,0.61268 0.872815,0.61318 1.298828,0.54297 0.47325,-0.0893 0.940732,-0.71087 1.416992,-0.36475 -0.133455,1.49698 -0.395095,3.01071 -0.2252,4.52591 0.01112,1.11036 0.425463,2.13651 0.788678,3.16306 -1.24829,0.16017 -2.582458,0.25271 -3.814455,-0.0596 -0.541985,-0.46139 0.396132,-0.99373 0.81299,-1.07862 0.451482,-0.20312 1.256677,-0.30608 1.349607,-0.88476 -0.3663,-0.47091 -1.096072,-0.023 -1.537597,0.12793 -0.412233,0.30212 -1.090923,0.51245 -1.319335,-0.11622 -0.21596,-0.67736 -0.45937,-1.62912 0.0088,-2.25488 0.426525,-0.47004 -0.315955,-1.01913 -0.111818,-1.56103 0.04621,-0.67647 0.327945,-1.35867 0.918945,-1.70606 0.319975,-0.34605 -0.22267,-0.98436 0.350588,-1.12695 0.41325,-0.12227 0.851112,-0.11459 1.27783,-0.12354 z m 28.409184,10.26319 c 0.33221,0.0591 0.96127,-0.0928 1.13037,0.25 -0.72008,0.87397 -1.83044,1.36569 -2.81543,1.89404 -0.65988,0.49102 -1.396169,-0.46339 -2.017579,0.0317 -1.010188,0.83611 -2.436533,0.94309 -3.491213,1.74072 -0.526132,0.42951 -1.200697,0.52094 -1.808105,0.72315 -0.327447,0.59342 -1.042715,0.99427 -1.705567,1.10742 -0.800423,-0.0113 -1.384655,0.8064 -2.141225,1.0216 -1.344918,0.35681 -2.773048,0.37089 -4.152825,0.56362 -1.062468,0.40654 -1.30215,-0.19803 -1.243933,-1.1681 0.03717,-1.31305 -0.346102,-0.2986 -0.664652,0.35339 -0.291345,0.97605 -1.431458,0.46824 -2.113283,0.41113 -0.493405,-0.002 -0.979535,-0.37041 -0.686035,-0.90137 0.15638,-0.23933 0.154965,-0.92651 -0.263672,-0.60937 -0.47706,0.55113 -1.305103,0.92039 -1.910155,0.32324 -0.489443,-0.1936 -0.189523,-0.58347 0.05176,-0.84375 0.251655,-0.5999 -0.738712,-0.70434 -1.13086,-0.58985 -0.50219,0.13572 0.473128,-0.13087 0.64502,-0.11328 2.869603,-0.4413 5.767065,0.4212 8.641855,-0.13617 2.23963,-0.29156 4.2855,-1.33444 6.343683,-2.14679 1.047015,-0.14497 1.86155,-0.93781 2.928525,-1.06372 1.194127,-0.26605 2.386612,-0.61278 3.606441,-0.54931 0.0208,0.3269 -0.730044,0.98657 -0.200679,1.12451 0.877039,-0.56128 1.633089,-1.58181 2.803229,-1.4209 0.0648,7.5e-4 0.12955,-0.002 0.19433,-0.002 z m -17.322757,0.34131 c 0.251833,-0.0246 0.92096,0.18279 0.484375,0.48925 -0.653635,0.58431 -0.936867,1.5407 -1.694825,1.97901 -1.141015,0.13908 -2.359272,0.20829 -3.479492,-0.0859 -0.305623,-0.271 0.420587,-0.58167 0.570312,-0.74512 1.239448,-0.75174 2.625943,-1.55053 4.11963,-1.6372 z m 25.218267,0.0112 c 1.20393,0.54349 2.28349,1.44157 3.05518,2.50537 0.0719,0.60059 -0.75956,0.14759 -1.00508,-0.0219 -0.88319,-0.48714 -1.49527,-1.4132 -2.40362,-1.81888 -0.0561,-0.2271 0.089,-0.6435 0.35352,-0.66456 z m -21.692389,0.45654 c 0.532482,-0.0299 1.057095,0.10246 1.355957,0.54151 0.41734,0.20128 0.899615,0.07 1.337403,0.0298 -0.543313,0.30113 -1.35538,0.81048 -1.885743,0.66748 0.298235,-0.31882 -0.153602,-0.61442 -0.432617,-0.35302 -1.09025,0.47723 -2.071533,1.67402 -3.357423,1.39892 -0.538767,-0.377 0.274365,-0.9419 0.525393,-1.25683 0.661712,-0.6608 1.497297,-1.10655 2.45703,-1.02784 z m -16.64453,0.41505 c -0.35431,0.4564 -1.362293,0.87118 -1.129883,1.58789 0.443348,0.26649 0.687375,-0.54706 0.931948,-0.8007 0.09874,-0.19129 0.968697,-1.35546 0.197935,-0.78719 z m 23.11084,4.22461 c 0.400652,0.11744 1.105207,0.40711 1.072752,0.8833 -0.45107,-0.0808 -1.01431,-0.47523 -1.150877,-0.88233 0.02573,-0.005 0.05222,-0.003 0.07813,-0.001 z"
         id="path879"
         inkscape:connector-curvature="0"
         sodipodi:nodetypes="cccccccccccccccccccccccccccccccccccccccccccccccccccccccccccccsccccccccsssccccccccccccccccccccccccccccccccccccccccccccccccccccccccccccccccccccccccccccccccccccccccccccccccccccccccccccccccccccccccccccccccccccccccccccccccccccccccccccccccccccccccccccccccc" />
    </g>
  </g>
</svg>
