<?xml version="1.0" encoding="UTF-8"?>
<svg id="b" data-name="Camada_2" xmlns="http://www.w3.org/2000/svg" viewBox="0 0 700 700">
  <g id="c" data-name="Layer_1">
    <g>
      <rect x="0" y="532" width="56" height="28"/>
      <path d="M112,504h-56v28h56v-28h28v-56h-28v56Z"/>
      <path d="M140,588h-28v56h28v-56Z"/>
      <path d="M56,560v28h56v-28h-56Z"/>
      <path d="M140,672v28h28v-56h-28v28Z"/>
      <path d="M168,644h28v-56h-28v56Z"/>
      <path d="M196,560v28h56v-28h-56Z"/>
      <path d="M196,448h-28v-56s-28,0-28,0v56s28,0,28,0v56h28v-56Z"/>
      <path d="M252,532v-28h-56v28h56v28h56s0-28,0-28h-56Z"/>
      <path d="M56,140v-28H0v28h56Z"/>
      <rect x="56" y="84" width="28" height="28"/>
      <path d="M112,0h-28v84h28V0Z"/>
      <rect x="56" y="140" width="28" height="28"/>
      <path d="M84,252h28v-84h-28v84Z"/>
      <rect x="112" y="84" width="28" height="28"/>
      <path d="M140,140h56v-28h-56v28h-28v28h28v-28Z"/>
      <path d="M616,336v28h-56v28h-56v28h-28v56h-28v56h28c0-13.96,0-42.05,0-56h28v-56h56v-28h56v-28h84v-28s-70.05,0-84,0Z"/>
      <path d="M308,336v-28h-56v28h56Z"/>
      <path d="M168,336v28h84v-28h-84Z"/>
      <path d="M252,364v28h56v-28h-56Z"/>
      <path d="M308,392v28h56v-28h-56Z"/>
      <path d="M392,420h-28v56h28v-56Z"/>
      <path d="M420,476h-28v56h28v-56Z"/>
      <path d="M420,700h28v-168h-28v168Z"/>
      <path d="M560,336h56v-28h-56v28Z"/>
      <path d="M560,308v-28h-56v28h56Z"/>
      <rect x="476" y="224" width="28" height="56"/>
      <path d="M448,224h28v-56s-28,0-28,0v56Z"/>
      <path d="M420,168h-28v56h28v-56Z"/>
      <path d="M448,0h-28v168h28V0Z"/>
      <path d="M392,252v-28h-28v56h28v-28Z"/>
      <path d="M364,308v-28h-56v28h56Z"/>
    </g>
  </g>
</svg>
