<?xml version="1.0" encoding="UTF-8" standalone="no"?>
<!-- Created with Inkscape (http://www.inkscape.org/) -->

<svg
   width="168.4012mm"
   height="39.504662mm"
   viewBox="0 0 168.4012 39.504662"
   version="1.1"
   id="svg1"
   xml:space="preserve"
   inkscape:version="1.4 (e7c3feb1, 2024-10-09)"
   sodipodi:docname="doteval-logo-light.svg"
   xmlns:inkscape="http://www.inkscape.org/namespaces/inkscape"
   xmlns:sodipodi="http://sodipodi.sourceforge.net/DTD/sodipodi-0.dtd"
   xmlns="http://www.w3.org/2000/svg"
   xmlns:svg="http://www.w3.org/2000/svg"><sodipodi:namedview
     id="namedview1"
     pagecolor="#ffffff"
     bordercolor="#000000"
     borderopacity="0.25"
     inkscape:showpageshadow="2"
     inkscape:pageopacity="0.0"
     inkscape:pagecheckerboard="0"
     inkscape:deskcolor="#d1d1d1"
     inkscape:document-units="mm"
     inkscape:zoom="0.89887065"
     inkscape:cx="303.71444"
     inkscape:cy="357.67104"
     inkscape:window-width="3440"
     inkscape:window-height="1440"
     inkscape:window-x="0"
     inkscape:window-y="0"
     inkscape:window-maximized="0"
     inkscape:current-layer="layer1" /><defs
     id="defs1" /><g
     inkscape:label="Layer 1"
     inkscape:groupmode="layer"
     id="layer1"
     transform="translate(-24.798153,-53.766628)"><g
       id="g27"
       transform="matrix(0.05643523,0,0,0.05643523,24.798153,53.766628)"><rect
         x="0"
         y="532"
         width="56"
         height="28"
         id="rect1" /><path
         d="M 112,504 H 56 v 28 h 56 v -28 h 28 v -56 h -28 z"
         id="path1" /><path
         d="m 140,588 h -28 v 56 h 28 z"
         id="path2" /><path
         d="m 56,560 v 28 h 56 v -28 z"
         id="path3" /><path
         d="m 140,672 v 28 h 28 v -56 h -28 z"
         id="path4" /><path
         d="m 168,644 h 28 v -56 h -28 z"
         id="path5" /><path
         d="m 196,560 v 28 h 56 v -28 z"
         id="path6" /><path
         d="m 196,448 h -28 v -56 c 0,0 -28,0 -28,0 v 56 c 0,0 28,0 28,0 v 56 h 28 z"
         id="path7" /><path
         d="m 252,532 v -28 h -56 v 28 h 56 v 28 h 56 c 0,0 0,-28 0,-28 z"
         id="path8" /><path
         d="M 56,140 V 112 H 0 v 28 z"
         id="path9" /><rect
         x="56"
         y="84"
         width="28"
         height="28"
         id="rect9" /><path
         d="M 112,0 H 84 v 84 h 28 z"
         id="path10" /><rect
         x="56"
         y="140"
         width="28"
         height="28"
         id="rect10" /><path
         d="m 84,252 h 28 V 168 H 84 Z"
         id="path11" /><rect
         x="112"
         y="84"
         width="28"
         height="28"
         id="rect11" /><path
         d="m 140,140 h 56 v -28 h -56 v 28 h -28 v 28 h 28 z"
         id="path12" /><path
         d="m 616,336 v 28 h -56 v 28 h -56 v 28 h -28 v 56 h -28 v 56 h 28 c 0,-13.96 0,-42.05 0,-56 h 28 v -56 h 56 v -28 h 56 v -28 h 84 v -28 c 0,0 -70.05,0 -84,0 z"
         id="path13" /><path
         d="m 308,336 v -28 h -56 v 28 z"
         id="path14" /><path
         d="m 168,336 v 28 h 84 v -28 z"
         id="path15" /><path
         d="m 252,364 v 28 h 56 v -28 z"
         id="path16" /><path
         d="m 308,392 v 28 h 56 v -28 z"
         id="path17" /><path
         d="m 392,420 h -28 v 56 h 28 z"
         id="path18" /><path
         d="m 420,476 h -28 v 56 h 28 z"
         id="path19" /><path
         d="m 420,700 h 28 V 532 h -28 z"
         id="path20" /><path
         d="m 560,336 h 56 v -28 h -56 z"
         id="path21" /><path
         d="m 560,308 v -28 h -56 v 28 z"
         id="path22" /><rect
         x="476"
         y="224"
         width="28"
         height="56"
         id="rect22" /><path
         d="m 448,224 h 28 v -56 c 0,0 -28,0 -28,0 z"
         id="path23" /><path
         d="m 420,168 h -28 v 56 h 28 z"
         id="path24" /><path
         d="m 448,0 h -28 v 168 h 28 z"
         id="path25" /><path
         d="m 392,252 v -28 h -28 v 56 h 28 z"
         id="path26" /><path
         d="m 364,308 v -28 h -56 v 28 z"
         id="path27" /></g><text
       xml:space="preserve"
       style="font-size:45.8611px;font-family:'PP Neue Montreal';-inkscape-font-specification:'PP Neue Montreal';text-align:start;writing-mode:lr-tb;direction:ltr;text-anchor:start;fill:#000000;stroke:#000000;stroke-width:0.529167"
       x="71.821609"
       y="83.006935"
       id="text1"><tspan
         sodipodi:role="line"
         id="tspan1"
         style="font-style:normal;font-variant:normal;font-weight:bold;font-stretch:normal;font-size:45.8611px;font-family:'PP NeueBit';-inkscape-font-specification:'PP NeueBit Bold';stroke-width:0.529167"
         x="71.821609"
         y="83.006935">dotevals</tspan></text></g></svg>
