<?xml version="1.0" encoding="UTF-8"?>
<svg id="_Темная" data-name="Темная" xmlns="http://www.w3.org/2000/svg" viewBox="0 0 500 500">
  <g>
    <rect x="0" width="500" height="500" style="fill: #121212;"/>
    <g>
      <path d="M249.47,99.77c18.77,0,37.54,0,56.31,0,12.32,0,22.78,10.4,22.81,22.74,.03,11.29,.01,22.59,0,33.88,0,10.89-7.96,20.51-18.76,21.99-4.97,.68-10.08,.49-15.13,.5-33.88,.04-67.76,.02-101.64,.03-12.56,0-22.71-10.09-22.74-22.66-.02-10.9-.05-21.81-.04-32.71,.01-13.45,10.37-23.77,23.79-23.76,18.46,.01,36.92,0,55.38,0Z" style="fill: #121212;"/>
      <path d="M184.4,308.11c3.2-4.06,5.9-7.62,8.78-11.04,.46-.55,1.71-.61,2.6-.61,34.95-.02,69.91-.01,104.86,0,1.09,0,2.2-.15,3.26,.02,.85,.14,1.9,.45,2.41,1.06,2.44,2.93,4.74,5.97,7.04,9,.29,.38,.28,.97,.43,1.56H184.4Z" style="fill: #121212;"/>
      <path d="M203.71,282.81c.67-1.03,1.04-1.67,1.48-2.26,2.58-3.42,5.19-6.8,7.75-10.23,1.15-1.54,2.47-2.28,4.52-2.27,21.19,.07,42.38,.07,63.57,0,2.26,0,3.8,.69,5.12,2.49,2.48,3.39,5.16,6.63,7.71,9.97,.44,.58,.68,1.32,1.01,1.98-.77,.22-1.54,.64-2.3,.65-22.44,.04-44.87,.03-67.31,.03-6.15,0-12.31,.01-18.46-.01-.88,0-1.75-.19-3.09-.34Z" style="fill: #121212;"/>
      <path d="M208.09,216.69c.03,7.89-6.52,14.55-14.31,14.52-7.45-.03-14-6.55-14.04-14-.05-8.16,6.18-14.64,14.06-14.62,8.02,.02,14.26,6.18,14.29,14.09Z" style="fill: #121212;"/>
      <path d="M290.78,216.96c.01-7.77,6.56-14.38,14.21-14.36,7.86,.02,14.2,6.53,14.2,14.59,0,7.36-6.61,14.13-14.07,13.98-8.94-.18-14.5-7.41-14.34-14.21Z" style="fill: #121212;"/>
    </g>
  </g>
  <path d="M350.83,169.2c0,17.53-.03,35.05,.01,52.58,.03,11.56-3.63,21.68-11.61,30.11-7.55,7.98-16.83,12.59-27.76,13.87-.77,.09-1.49,.59-2.23,.89,.35,.8,.52,1.77,1.08,2.38,8.44,9.05,16.94,18.05,25.41,27.08,5.53,5.9,10.94,11.93,16.6,17.71,2.36,2.41,3.6,4.87,2.5,8.13-1.14,3.36-3.52,5.82-7,6.1-4.94,.41-9.95,.28-14.92,.05-2.67-.12-4.76-1.78-6.26-4.03-.9-1.34-2.04-1.88-3.72-1.88-48.99,.04-97.98,.04-146.97,0-1.67,0-2.8,.52-3.72,1.85-2.19,3.16-5.29,4.36-9.06,4.26-3.42-.09-6.85,0-10.28-.03-5.25-.07-9.37-4.32-9.02-9.5,.08-1.22,.6-2.67,1.42-3.55,8.2-8.84,16.51-17.58,24.78-26.36,6.4-6.79,12.8-13.58,19.16-20.4,.41-.44,.83-1.49,.62-1.77-.41-.52-1.25-.87-1.95-.95-5.93-.68-11.59-2.21-16.8-5.2-13.07-7.49-21.28-18.51-22.41-33.65-.87-11.62-.49-23.33-.52-35.01-.06-25.08,.2-50.16-.08-75.24-.27-24.01,15.69-41.75,36.12-47.08,2.1-.55,4.26-.88,6.41-1.24,1.96-.33,2.98-1.47,3.22-3.42,1.17-9.36,8.42-15.71,17.79-15.71,25.31,0,50.62-.03,75.93-.06,8.53-.01,16.4,6.67,17.52,15.1,.33,2.51,1.27,3.73,4,4.14,15.63,2.32,27.69,10.17,35.75,23.85,4.25,7.21,5.93,15.18,5.97,23.46,.08,17.84,.03,35.67,.03,53.51Zm-101.37-69.43c-18.46,0-36.92,0-55.38,0-13.42,0-23.78,10.31-23.79,23.76,0,10.9,.01,21.81,.04,32.71,.03,12.57,10.17,22.66,22.74,22.66,33.88,0,67.76,.01,101.64-.03,5.05,0,10.16,.18,15.13-.5,10.8-1.48,18.75-11.1,18.76-21.99,0-11.29,.02-22.59,0-33.88-.03-12.33-10.49-22.74-22.81-22.74-18.77,0-37.54,0-56.31,0Zm-65.06,208.34h129.39c-.15-.59-.14-1.19-.43-1.56-2.3-3.04-4.6-6.08-7.04-9-.51-.61-1.56-.92-2.41-1.06-1.06-.17-2.17-.02-3.26-.02-34.95,0-69.91-.02-104.86,0-.89,0-2.14,.06-2.6,.61-2.88,3.41-5.59,6.97-8.78,11.04Zm19.31-25.3c1.33,.15,2.21,.34,3.09,.34,6.15,.02,12.31,.01,18.46,.01,22.44,0,44.87,0,67.31-.03,.77,0,1.54-.42,2.3-.65-.33-.67-.57-1.4-1.01-1.98-2.55-3.34-5.22-6.59-7.71-9.97-1.33-1.81-2.86-2.5-5.12-2.49-21.19,.08-42.38,.08-63.57,0-2.05,0-3.37,.73-4.52,2.27-2.56,3.43-5.17,6.82-7.75,10.23-.45,.59-.82,1.24-1.48,2.26Zm4.37-66.12c-.03-7.92-6.27-14.07-14.29-14.09-7.87-.02-14.11,6.46-14.06,14.62,.05,7.45,6.59,13.97,14.04,14,7.78,.03,14.34-6.63,14.31-14.52Zm82.69,.27c-.16,6.8,5.41,14.03,14.34,14.21,7.46,.15,14.07-6.62,14.07-13.98,0-8.05-6.34-14.56-14.2-14.59-7.66-.02-14.2,6.59-14.21,14.36Z" style="fill: #fd7314;"/>
  <g>
    <path d="M111.22,399.06h-10.69v-46.2h34.91v8.58h-24.22v37.62Zm-.79-25.41h22.18v8.58h-22.18v-8.58Z" style="fill: #fd7314;"/>
    <path d="M158.67,399.59c-4.05,0-7.6-.79-10.66-2.38-3.06-1.58-5.42-3.75-7.1-6.5s-2.51-5.88-2.51-9.41,.83-6.72,2.47-9.47c1.65-2.75,3.9-4.91,6.77-6.47,2.86-1.56,6.09-2.34,9.7-2.34s6.61,.74,9.41,2.21c2.79,1.47,5,3.59,6.63,6.34,1.63,2.75,2.44,6.04,2.44,9.87,0,.4-.02,.85-.07,1.35-.04,.51-.09,.98-.13,1.42h-28.84v-6.01h23.43l-3.96,1.78c0-1.85-.37-3.45-1.12-4.82-.75-1.36-1.78-2.43-3.1-3.2-1.32-.77-2.86-1.16-4.62-1.16s-3.31,.39-4.65,1.16c-1.34,.77-2.39,1.85-3.13,3.23-.75,1.39-1.12,3.03-1.12,4.92v1.58c0,1.94,.43,3.64,1.29,5.12,.86,1.47,2.07,2.6,3.63,3.37,1.56,.77,3.4,1.16,5.51,1.16,1.89,0,3.55-.29,4.98-.86,1.43-.57,2.74-1.43,3.93-2.57l5.48,5.94c-1.63,1.85-3.67,3.27-6.14,4.26-2.46,.99-5.3,1.49-8.51,1.49Z" style="fill: #fd7314;"/>
    <path d="M182.7,399.06v-35.51h9.83v10.03l-1.39-2.9c1.06-2.51,2.75-4.41,5.08-5.71,2.33-1.3,5.17-1.95,8.51-1.95v9.5c-.44-.04-.84-.08-1.19-.1-.35-.02-.73-.03-1.12-.03-2.82,0-5.09,.8-6.83,2.41-1.74,1.61-2.61,4.1-2.61,7.49v16.76h-10.3Z" style="fill: #fd7314;"/>
    <path d="M210.88,399.06v-35.51h9.83v10.03l-1.39-2.9c1.06-2.51,2.75-4.41,5.08-5.71s5.17-1.95,8.51-1.95v9.5c-.44-.04-.84-.08-1.19-.1-.35-.02-.73-.03-1.12-.03-2.82,0-5.09,.8-6.83,2.41-1.74,1.61-2.61,4.1-2.61,7.49v16.76h-10.29Z" style="fill: #fd7314;"/>
    <path d="M255.63,399.59c-3.79,0-7.14-.79-10.06-2.38-2.93-1.58-5.24-3.75-6.93-6.5-1.69-2.75-2.54-5.88-2.54-9.41s.85-6.72,2.54-9.47c1.69-2.75,4-4.91,6.93-6.47,2.93-1.56,6.28-2.34,10.06-2.34s7.08,.78,10.03,2.34c2.95,1.56,5.26,3.71,6.93,6.44,1.67,2.73,2.51,5.9,2.51,9.5s-.84,6.66-2.51,9.41c-1.67,2.75-3.98,4.92-6.93,6.5-2.95,1.58-6.29,2.38-10.03,2.38Zm0-8.45c1.72,0,3.26-.4,4.62-1.19,1.36-.79,2.44-1.92,3.23-3.4,.79-1.47,1.19-3.22,1.19-5.25s-.4-3.83-1.19-5.28c-.79-1.45-1.87-2.57-3.23-3.37-1.36-.79-2.9-1.19-4.62-1.19s-3.26,.4-4.62,1.19c-1.36,.79-2.45,1.91-3.27,3.37-.81,1.45-1.22,3.21-1.22,5.28s.41,3.77,1.22,5.25c.81,1.47,1.9,2.61,3.27,3.4,1.36,.79,2.9,1.19,4.62,1.19Z" style="fill: #fd7314;"/>
    <path d="M281.96,399.06v-48.97h10.3v20.66l-.66,10.49,.2,10.56v7.26h-9.83Zm20.99,.53c-3.12,0-5.81-.66-8.05-1.98s-3.96-3.33-5.15-6.04-1.78-6.13-1.78-10.26,.63-7.61,1.88-10.3c1.25-2.68,3-4.69,5.25-6.01,2.24-1.32,4.86-1.98,7.85-1.98,3.34,0,6.35,.75,9.01,2.24,2.66,1.5,4.77,3.61,6.34,6.34,1.56,2.73,2.34,5.96,2.34,9.7s-.78,6.91-2.34,9.64c-1.56,2.73-3.67,4.85-6.34,6.37-2.66,1.52-5.67,2.28-9.01,2.28Zm-1.78-8.45c1.72,0,3.24-.4,4.59-1.19,1.34-.79,2.42-1.92,3.23-3.4,.81-1.47,1.22-3.22,1.22-5.25s-.41-3.83-1.22-5.28c-.81-1.45-1.89-2.57-3.23-3.37-1.34-.79-2.87-1.19-4.59-1.19s-3.26,.4-4.62,1.19c-1.36,.79-2.44,1.91-3.23,3.37-.79,1.45-1.19,3.21-1.19,5.28s.4,3.77,1.19,5.25c.79,1.47,1.87,2.61,3.23,3.4,1.36,.79,2.9,1.19,4.62,1.19Z" style="fill: #fd7314;"/>
    <path d="M342.48,399.59c-2.95,0-5.58-.57-7.89-1.72-2.31-1.14-4.1-2.89-5.38-5.25s-1.91-5.36-1.91-9.01v-20.06h10.29v18.55c0,2.95,.63,5.12,1.88,6.5s3.03,2.08,5.31,2.08c1.58,0,2.99-.34,4.22-1.02,1.23-.68,2.2-1.74,2.9-3.17,.7-1.43,1.06-3.22,1.06-5.38v-17.56h10.29v35.51h-9.77v-9.77l1.78,2.84c-1.19,2.46-2.94,4.32-5.25,5.58-2.31,1.25-4.83,1.88-7.56,1.88Z" style="fill: #fd7314;"/>
    <path d="M384.79,399.59c-3.04,0-5.95-.36-8.75-1.09-2.79-.73-5.01-1.64-6.63-2.74l3.43-7.39c1.63,1.01,3.55,1.84,5.78,2.48,2.22,.64,4.41,.96,6.57,.96,2.38,0,4.06-.29,5.05-.86,.99-.57,1.49-1.36,1.49-2.38,0-.83-.39-1.46-1.16-1.88-.77-.42-1.79-.74-3.07-.96-1.28-.22-2.67-.44-4.19-.66-1.52-.22-3.05-.52-4.59-.89-1.54-.37-2.95-.93-4.22-1.68-1.28-.75-2.3-1.76-3.07-3.04-.77-1.28-1.16-2.93-1.16-4.95,0-2.24,.65-4.22,1.95-5.94,1.3-1.72,3.18-3.07,5.64-4.06,2.46-.99,5.41-1.49,8.84-1.49,2.42,0,4.88,.26,7.39,.79s4.6,1.3,6.27,2.31l-3.43,7.33c-1.72-1.01-3.44-1.7-5.18-2.08-1.74-.37-3.42-.56-5.05-.56-2.29,0-3.96,.31-5.02,.92-1.06,.62-1.58,1.41-1.58,2.38,0,.88,.38,1.54,1.16,1.98,.77,.44,1.79,.79,3.07,1.06,1.28,.26,2.67,.5,4.19,.69,1.52,.2,3.05,.5,4.59,.89,1.54,.4,2.94,.96,4.19,1.68,1.25,.73,2.28,1.72,3.07,2.97,.79,1.25,1.19,2.89,1.19,4.92,0,2.2-.66,4.15-1.98,5.84-1.32,1.69-3.22,3.03-5.71,3.99-2.49,.97-5.51,1.45-9.08,1.45Z" style="fill: #fd7314;"/>
    <path d="M106.93,423.06v-14h2.68l5.96,9.88h-1.42l5.86-9.88h2.66l.04,14h-3.04l-.02-9.34h.56l-4.68,7.86h-1.46l-4.78-7.86h.68v9.34h-3.04Z" style="fill: #fd7314;"/>
    <path d="M130.34,423.22c-.89,0-1.69-.17-2.39-.52-.7-.35-1.24-.88-1.63-1.59-.39-.71-.58-1.62-.58-2.73v-6.08h3.12v5.62c0,.89,.19,1.55,.57,1.97s.92,.63,1.61,.63c.48,0,.91-.1,1.28-.31,.37-.21,.67-.53,.88-.96,.21-.43,.32-.98,.32-1.63v-5.32h3.12v10.76h-2.96v-2.96l.54,.86c-.36,.75-.89,1.31-1.59,1.69s-1.46,.57-2.29,.57Z" style="fill: #fd7314;"/>
    <path d="M139.54,423.06v-14.84h3.12v14.84h-3.12Z" style="fill: #fd7314;"/>
    <path d="M145.06,414.94v-2.4h7.46v2.4h-7.46Zm5.68,8.28c-1.27,0-2.25-.32-2.96-.97-.71-.65-1.06-1.61-1.06-2.89v-9.44h3.12v9.4c0,.45,.12,.8,.36,1.05,.24,.25,.57,.37,.98,.37,.49,0,.91-.13,1.26-.4l.84,2.2c-.32,.23-.7,.4-1.15,.51-.45,.11-.91,.17-1.39,.17Z" style="fill: #fd7314;"/>
    <path d="M156.6,410.8c-.57,0-1.04-.17-1.4-.5-.36-.33-.54-.75-.54-1.24s.18-.91,.54-1.24c.36-.33,.83-.5,1.4-.5s1.04,.16,1.4,.47c.36,.31,.54,.72,.54,1.21,0,.52-.18,.95-.53,1.29-.35,.34-.82,.51-1.41,.51Zm-1.56,12.26v-10.76h3.12v10.76h-3.12Z" style="fill: #fd7314;"/>
    <path d="M174.84,412.14c.85,0,1.61,.17,2.27,.51,.66,.34,1.18,.86,1.56,1.56,.38,.7,.57,1.6,.57,2.69v6.16h-3.12v-5.68c0-.87-.18-1.51-.54-1.92s-.87-.62-1.52-.62c-.45,0-.86,.1-1.22,.31-.36,.21-.64,.52-.84,.93-.2,.41-.3,.94-.3,1.58v5.4h-3.12v-5.68c0-.87-.18-1.51-.53-1.92-.35-.41-.86-.62-1.51-.62-.45,0-.86,.1-1.22,.31-.36,.21-.64,.52-.84,.93-.2,.41-.3,.94-.3,1.58v5.4h-3.12v-10.76h2.98v2.94l-.56-.86c.37-.73,.9-1.29,1.59-1.67,.69-.38,1.47-.57,2.35-.57,.99,0,1.85,.25,2.59,.75s1.23,1.26,1.47,2.29l-1.1-.3c.36-.84,.94-1.51,1.73-2,.79-.49,1.7-.74,2.73-.74Z" style="fill: #fd7314;"/>
    <path d="M187.24,423.22c-1.15,0-2.16-.24-3.05-.72-.89-.48-1.59-1.14-2.1-1.97-.51-.83-.77-1.78-.77-2.85s.26-2.04,.77-2.87,1.21-1.49,2.1-1.96,1.9-.71,3.05-.71,2.15,.24,3.04,.71,1.59,1.12,2.1,1.95c.51,.83,.76,1.79,.76,2.88s-.25,2.02-.76,2.85c-.51,.83-1.21,1.49-2.1,1.97-.89,.48-1.91,.72-3.04,.72Zm0-2.56c.52,0,.99-.12,1.4-.36,.41-.24,.74-.58,.98-1.03,.24-.45,.36-.98,.36-1.59s-.12-1.16-.36-1.6c-.24-.44-.57-.78-.98-1.02-.41-.24-.88-.36-1.4-.36s-.99,.12-1.4,.36c-.41,.24-.74,.58-.99,1.02-.25,.44-.37,.97-.37,1.6s.12,1.14,.37,1.59c.25,.45,.58,.79,.99,1.03,.41,.24,.88,.36,1.4,.36Z" style="fill: #fd7314;"/>
    <path d="M199.84,423.22c-1.01,0-1.93-.23-2.74-.69-.81-.46-1.46-1.1-1.93-1.93-.47-.83-.71-1.8-.71-2.92s.24-2.11,.71-2.94c.47-.83,1.12-1.47,1.93-1.92,.81-.45,1.73-.68,2.74-.68,.91,0,1.7,.2,2.38,.6,.68,.4,1.21,1.01,1.58,1.82,.37,.81,.56,1.85,.56,3.12s-.18,2.29-.54,3.11c-.36,.82-.88,1.43-1.55,1.83-.67,.4-1.48,.6-2.43,.6Zm.54-2.56c.51,0,.97-.12,1.38-.36,.41-.24,.74-.58,.99-1.03,.25-.45,.37-.98,.37-1.59s-.12-1.16-.37-1.6c-.25-.44-.58-.78-.99-1.02-.41-.24-.87-.36-1.38-.36s-.99,.12-1.4,.36c-.41,.24-.74,.58-.99,1.02-.25,.44-.37,.97-.37,1.6s.12,1.14,.37,1.59c.25,.45,.58,.79,.99,1.03,.41,.24,.88,.36,1.4,.36Zm2.82,2.4v-2.2l.06-3.2-.2-3.18v-6.26h3.12v14.84h-2.98Z" style="fill: #fd7314;"/>
    <path d="M212.38,423.22c-.84,0-1.56-.14-2.16-.43-.6-.29-1.06-.68-1.38-1.17-.32-.49-.48-1.05-.48-1.66s.16-1.2,.47-1.68c.31-.48,.81-.86,1.49-1.13s1.57-.41,2.66-.41h2.86v1.82h-2.52c-.73,0-1.24,.12-1.51,.36-.27,.24-.41,.54-.41,.9,0,.4,.16,.72,.47,.95s.74,.35,1.29,.35,.99-.12,1.4-.37c.41-.25,.71-.61,.9-1.09l.48,1.44c-.23,.69-.64,1.22-1.24,1.58s-1.37,.54-2.32,.54Zm3.28-.16v-2.1l-.2-.46v-3.76c0-.67-.2-1.19-.61-1.56-.41-.37-1.03-.56-1.87-.56-.57,0-1.14,.09-1.69,.27s-1.02,.42-1.41,.73l-1.12-2.18c.59-.41,1.29-.73,2.12-.96s1.67-.34,2.52-.34c1.64,0,2.91,.39,3.82,1.16,.91,.77,1.36,1.98,1.36,3.62v6.14h-2.92Z" style="fill: #fd7314;"/>
    <path d="M221.4,423.06v-14.84h3.12v14.84h-3.12Z" style="fill: #fd7314;"/>
    <path d="M236.2,423.06v-11.36h-4.48v-2.64h12.2v2.64h-4.48v11.36h-3.24Z" style="fill: #fd7314;"/>
    <path d="M245.2,423.06v-10.76h2.98v3.04l-.42-.88c.32-.76,.83-1.34,1.54-1.73,.71-.39,1.57-.59,2.58-.59v2.88c-.13-.01-.25-.02-.36-.03-.11,0-.22,0-.34,0-.85,0-1.54,.24-2.07,.73-.53,.49-.79,1.24-.79,2.27v5.08h-3.12Z" style="fill: #fd7314;"/>
    <path d="M256.36,423.22c-.84,0-1.56-.14-2.16-.43-.6-.29-1.06-.68-1.38-1.17-.32-.49-.48-1.05-.48-1.66s.16-1.2,.47-1.68c.31-.48,.81-.86,1.49-1.13,.68-.27,1.57-.41,2.66-.41h2.86v1.82h-2.52c-.73,0-1.24,.12-1.51,.36-.27,.24-.41,.54-.41,.9,0,.4,.16,.72,.47,.95,.31,.23,.74,.35,1.29,.35s.99-.12,1.4-.37c.41-.25,.71-.61,.9-1.09l.48,1.44c-.23,.69-.64,1.22-1.24,1.58s-1.37,.54-2.32,.54Zm3.28-.16v-2.1l-.2-.46v-3.76c0-.67-.2-1.19-.61-1.56-.41-.37-1.03-.56-1.87-.56-.57,0-1.14,.09-1.69,.27s-1.02,.42-1.41,.73l-1.12-2.18c.59-.41,1.29-.73,2.12-.96s1.67-.34,2.52-.34c1.64,0,2.91,.39,3.82,1.16s1.36,1.98,1.36,3.62v6.14h-2.92Z" style="fill: #fd7314;"/>
    <path d="M271.92,412.14c.85,0,1.62,.17,2.29,.51,.67,.34,1.2,.86,1.59,1.56,.39,.7,.58,1.6,.58,2.69v6.16h-3.12v-5.68c0-.87-.19-1.51-.57-1.92s-.92-.62-1.61-.62c-.49,0-.94,.1-1.33,.31-.39,.21-.7,.52-.92,.95-.22,.43-.33,.97-.33,1.64v5.32h-3.12v-10.76h2.98v2.98l-.56-.9c.39-.72,.94-1.27,1.66-1.66,.72-.39,1.54-.58,2.46-.58Z" style="fill: #fd7314;"/>
    <path d="M282.82,423.22c-.92,0-1.8-.11-2.65-.33-.85-.22-1.52-.5-2.01-.83l1.04-2.24c.49,.31,1.08,.56,1.75,.75s1.34,.29,1.99,.29c.72,0,1.23-.09,1.53-.26,.3-.17,.45-.41,.45-.72,0-.25-.12-.44-.35-.57s-.54-.22-.93-.29c-.39-.07-.81-.13-1.27-.2-.46-.07-.92-.16-1.39-.27-.47-.11-.89-.28-1.28-.51s-.7-.53-.93-.92c-.23-.39-.35-.89-.35-1.5,0-.68,.2-1.28,.59-1.8,.39-.52,.96-.93,1.71-1.23,.75-.3,1.64-.45,2.68-.45,.73,0,1.48,.08,2.24,.24,.76,.16,1.39,.39,1.9,.7l-1.04,2.22c-.52-.31-1.04-.52-1.57-.63-.53-.11-1.04-.17-1.53-.17-.69,0-1.2,.09-1.52,.28-.32,.19-.48,.43-.48,.72,0,.27,.12,.47,.35,.6,.23,.13,.54,.24,.93,.32s.81,.15,1.27,.21c.46,.06,.92,.15,1.39,.27,.47,.12,.89,.29,1.27,.51,.38,.22,.69,.52,.93,.9s.36,.88,.36,1.49c0,.67-.2,1.26-.6,1.77-.4,.51-.98,.92-1.73,1.21s-1.67,.44-2.75,.44Z" style="fill: #fd7314;"/>
    <path d="M291.38,410.8c-.57,0-1.04-.17-1.4-.5s-.54-.75-.54-1.24,.18-.91,.54-1.24c.36-.33,.83-.5,1.4-.5s1.04,.16,1.4,.47c.36,.31,.54,.72,.54,1.21,0,.52-.18,.95-.53,1.29-.35,.34-.82,.51-1.41,.51Zm-1.56,12.26v-10.76h3.12v10.76h-3.12Z" style="fill: #fd7314;"/>
    <path d="M294.56,414.94v-2.4h7.46v2.4h-7.46Zm5.68,8.28c-1.27,0-2.25-.32-2.96-.97-.71-.65-1.06-1.61-1.06-2.89v-9.44h3.12v9.4c0,.45,.12,.8,.36,1.05,.24,.25,.57,.37,.98,.37,.49,0,.91-.13,1.26-.4l.84,2.2c-.32,.23-.7,.4-1.15,.51s-.91,.17-1.39,.17Z" style="fill: #fd7314;"/>
    <path d="M310.42,423.06v-14h6.06c1.25,0,2.33,.2,3.24,.61,.91,.41,1.61,.99,2.1,1.75,.49,.76,.74,1.67,.74,2.72s-.25,1.94-.74,2.69c-.49,.75-1.19,1.33-2.1,1.73s-1.99,.6-3.24,.6h-4.26l1.44-1.42v5.32h-3.24Zm3.24-4.96l-1.44-1.52h4.08c1,0,1.75-.22,2.24-.65,.49-.43,.74-1.03,.74-1.79s-.25-1.37-.74-1.8c-.49-.43-1.24-.64-2.24-.64h-4.08l1.44-1.54v7.94Zm5.66,4.96l-3.5-5.08h3.46l3.54,5.08h-3.5Z" style="fill: #fd7314;"/>
    <path d="M330.02,423.22c-1.15,0-2.16-.24-3.05-.72-.89-.48-1.59-1.14-2.1-1.97-.51-.83-.77-1.78-.77-2.85s.26-2.04,.77-2.87c.51-.83,1.21-1.49,2.1-1.96s1.9-.71,3.05-.71,2.15,.24,3.04,.71c.89,.47,1.59,1.12,2.1,1.95,.51,.83,.76,1.79,.76,2.88s-.25,2.02-.76,2.85c-.51,.83-1.21,1.49-2.1,1.97-.89,.48-1.91,.72-3.04,.72Zm0-2.56c.52,0,.99-.12,1.4-.36,.41-.24,.74-.58,.98-1.03,.24-.45,.36-.98,.36-1.59s-.12-1.16-.36-1.6c-.24-.44-.57-.78-.98-1.02-.41-.24-.88-.36-1.4-.36s-.99,.12-1.4,.36c-.41,.24-.74,.58-.99,1.02-.25,.44-.37,.97-.37,1.6s.12,1.14,.37,1.59c.25,.45,.58,.79,.99,1.03,.41,.24,.88,.36,1.4,.36Z" style="fill: #fd7314;"/>
    <path d="M342.54,423.22c-.89,0-1.69-.17-2.39-.52-.7-.35-1.24-.88-1.63-1.59-.39-.71-.58-1.62-.58-2.73v-6.08h3.12v5.62c0,.89,.19,1.55,.57,1.97,.38,.42,.92,.63,1.61,.63,.48,0,.91-.1,1.28-.31,.37-.21,.67-.53,.88-.96,.21-.43,.32-.98,.32-1.63v-5.32h3.12v10.76h-2.96v-2.96l.54,.86c-.36,.75-.89,1.31-1.59,1.69-.7,.38-1.46,.57-2.29,.57Z" style="fill: #fd7314;"/>
    <path d="M350.46,414.94v-2.4h7.46v2.4h-7.46Zm5.68,8.28c-1.27,0-2.25-.32-2.96-.97-.71-.65-1.06-1.61-1.06-2.89v-9.44h3.12v9.4c0,.45,.12,.8,.36,1.05,.24,.25,.57,.37,.98,.37,.49,0,.91-.13,1.26-.4l.84,2.2c-.32,.23-.7,.4-1.15,.51s-.91,.17-1.39,.17Z" style="fill: #fd7314;"/>
    <path d="M362,410.8c-.57,0-1.04-.17-1.4-.5s-.54-.75-.54-1.24,.18-.91,.54-1.24c.36-.33,.83-.5,1.4-.5s1.04,.16,1.4,.47c.36,.31,.54,.72,.54,1.21,0,.52-.18,.95-.53,1.29-.35,.34-.82,.51-1.41,.51Zm-1.56,12.26v-10.76h3.12v10.76h-3.12Z" style="fill: #fd7314;"/>
    <path d="M373,412.14c.85,0,1.62,.17,2.29,.51,.67,.34,1.2,.86,1.59,1.56,.39,.7,.58,1.6,.58,2.69v6.16h-3.12v-5.68c0-.87-.19-1.51-.57-1.92s-.92-.62-1.61-.62c-.49,0-.94,.1-1.33,.31-.39,.21-.7,.52-.92,.95-.22,.43-.33,.97-.33,1.64v5.32h-3.12v-10.76h2.98v2.98l-.56-.9c.39-.72,.94-1.27,1.66-1.66,.72-.39,1.54-.58,2.46-.58Z" style="fill: #fd7314;"/>
    <path d="M384.94,422.54c-1,0-1.9-.22-2.71-.65-.81-.43-1.45-1.04-1.94-1.82-.49-.78-.73-1.69-.73-2.73s.24-1.97,.73-2.75c.49-.78,1.13-1.38,1.94-1.81,.81-.43,1.71-.64,2.71-.64,.91,0,1.71,.18,2.4,.55,.69,.37,1.23,.93,1.62,1.7s.58,1.75,.58,2.95-.19,2.16-.58,2.93-.93,1.34-1.62,1.71-1.49,.56-2.4,.56Zm.48,4.56c-1.01,0-1.99-.12-2.93-.37-.94-.25-1.72-.62-2.35-1.11l1.24-2.24c.45,.37,1.03,.67,1.73,.89,.7,.22,1.39,.33,2.07,.33,1.11,0,1.91-.25,2.41-.74s.75-1.23,.75-2.2v-1.62l.2-2.7-.04-2.72v-2.32h2.96v8.96c0,2-.52,3.47-1.56,4.42-1.04,.95-2.53,1.42-4.48,1.42Zm.14-7.12c.55,0,1.03-.11,1.46-.33,.43-.22,.76-.53,1-.93,.24-.4,.36-.86,.36-1.38s-.12-1-.36-1.39c-.24-.39-.57-.7-1-.92-.43-.22-.91-.33-1.46-.33s-1.03,.11-1.46,.33c-.43,.22-.76,.53-1.01,.92-.25,.39-.37,.86-.37,1.39s.12,.98,.37,1.38c.25,.4,.58,.71,1.01,.93s.91,.33,1.46,.33Z" style="fill: #fd7314;"/>
    <path d="M193.59,438.94v-2.4h7.46v2.4h-7.46Zm1.66,8.12v-11c0-1.21,.36-2.18,1.08-2.91,.72-.73,1.75-1.09,3.08-1.09,.45,0,.89,.05,1.31,.14,.42,.09,.78,.24,1.07,.44l-.82,2.26c-.17-.12-.37-.21-.58-.28-.21-.07-.44-.1-.68-.1-.45,0-.8,.13-1.05,.39-.25,.26-.37,.65-.37,1.17v1l.08,1.34v8.64h-3.12Z" style="fill: #fd7314;"/>
    <path d="M207.59,447.22c-1.15,0-2.16-.24-3.05-.72-.89-.48-1.59-1.14-2.1-1.97-.51-.83-.77-1.78-.77-2.85s.26-2.04,.77-2.87c.51-.83,1.21-1.49,2.1-1.96s1.9-.71,3.05-.71,2.15,.24,3.04,.71c.89,.47,1.59,1.12,2.1,1.95,.51,.83,.76,1.79,.76,2.88s-.25,2.02-.76,2.85c-.51,.83-1.21,1.49-2.1,1.97-.89,.48-1.91,.72-3.04,.72Zm0-2.56c.52,0,.99-.12,1.4-.36,.41-.24,.74-.58,.98-1.03,.24-.45,.36-.98,.36-1.59s-.12-1.16-.36-1.6c-.24-.44-.57-.78-.98-1.02-.41-.24-.88-.36-1.4-.36s-.99,.12-1.4,.36-.74,.58-.99,1.02c-.25,.44-.37,.97-.37,1.6s.12,1.14,.37,1.59c.25,.45,.58,.79,.99,1.03s.88,.36,1.4,.36Z" style="fill: #fd7314;"/>
    <path d="M215.57,447.06v-10.76h2.98v3.04l-.42-.88c.32-.76,.83-1.34,1.54-1.73,.71-.39,1.57-.59,2.58-.59v2.88c-.13-.01-.25-.02-.36-.03-.11,0-.22,0-.34,0-.85,0-1.54,.24-2.07,.73-.53,.49-.79,1.24-.79,2.27v5.08h-3.12Z" style="fill: #fd7314;"/>
    <path d="M230.07,447.06v-14h6.06c1.25,0,2.33,.2,3.24,.61,.91,.41,1.61,.99,2.1,1.75,.49,.76,.74,1.67,.74,2.72s-.25,1.94-.74,2.7c-.49,.76-1.19,1.34-2.1,1.75-.91,.41-1.99,.61-3.24,.61h-4.26l1.44-1.46v5.32h-3.24Zm3.24-4.96l-1.44-1.54h4.08c1,0,1.75-.21,2.24-.64,.49-.43,.74-1.02,.74-1.78s-.25-1.37-.74-1.8c-.49-.43-1.24-.64-2.24-.64h-4.08l1.44-1.54v7.94Z" style="fill: #fd7314;"/>
    <path d="M245.77,451.1c-.56,0-1.11-.09-1.66-.26-.55-.17-.99-.41-1.34-.72l1.14-2.22c.24,.21,.52,.38,.83,.5,.31,.12,.62,.18,.93,.18,.44,0,.79-.1,1.05-.31s.5-.55,.71-1.03l.56-1.32,.24-.34,3.86-9.28h3l-4.86,11.42c-.35,.87-.74,1.55-1.19,2.04-.45,.49-.94,.84-1.48,1.04s-1.14,.3-1.79,.3Zm1.84-3.62l-4.8-11.18h3.22l3.72,9-2.14,2.18Z" style="fill: #fd7314;"/>
    <path d="M255.39,438.94v-2.4h7.46v2.4h-7.46Zm5.68,8.28c-1.27,0-2.25-.32-2.96-.97-.71-.65-1.06-1.61-1.06-2.89v-9.44h3.12v9.4c0,.45,.12,.8,.36,1.05,.24,.25,.57,.37,.98,.37,.49,0,.91-.13,1.26-.4l.84,2.2c-.32,.23-.7,.4-1.15,.51s-.91,.17-1.39,.17Z" style="fill: #fd7314;"/>
    <path d="M271.91,436.14c.85,0,1.62,.17,2.29,.51,.67,.34,1.2,.86,1.59,1.56,.39,.7,.58,1.6,.58,2.69v6.16h-3.12v-5.68c0-.87-.19-1.51-.57-1.92s-.92-.62-1.61-.62c-.49,0-.94,.1-1.33,.31-.39,.21-.7,.52-.92,.95-.22,.43-.33,.97-.33,1.64v5.32h-3.12v-14.84h3.12v7.06l-.7-.9c.39-.72,.94-1.27,1.66-1.66,.72-.39,1.54-.58,2.46-.58Z" style="fill: #fd7314;"/>
    <path d="M284.39,447.22c-1.15,0-2.16-.24-3.05-.72-.89-.48-1.59-1.14-2.1-1.97-.51-.83-.77-1.78-.77-2.85s.26-2.04,.77-2.87c.51-.83,1.21-1.49,2.1-1.96s1.9-.71,3.05-.71,2.15,.24,3.04,.71c.89,.47,1.59,1.12,2.1,1.95,.51,.83,.76,1.79,.76,2.88s-.25,2.02-.76,2.85c-.51,.83-1.21,1.49-2.1,1.97-.89,.48-1.91,.72-3.04,.72Zm0-2.56c.52,0,.99-.12,1.4-.36,.41-.24,.74-.58,.98-1.03,.24-.45,.36-.98,.36-1.59s-.12-1.16-.36-1.6c-.24-.44-.57-.78-.98-1.02-.41-.24-.88-.36-1.4-.36s-.99,.12-1.4,.36c-.41,.24-.74,.58-.99,1.02-.25,.44-.37,.97-.37,1.6s.12,1.14,.37,1.59c.25,.45,.58,.79,.99,1.03,.41,.24,.88,.36,1.4,.36Z" style="fill: #fd7314;"/>
    <path d="M298.91,436.14c.85,0,1.62,.17,2.29,.51,.67,.34,1.2,.86,1.59,1.56,.39,.7,.58,1.6,.58,2.69v6.16h-3.12v-5.68c0-.87-.19-1.51-.57-1.92s-.92-.62-1.61-.62c-.49,0-.94,.1-1.33,.31-.39,.21-.7,.52-.92,.95-.22,.43-.33,.97-.33,1.64v5.32h-3.12v-10.76h2.98v2.98l-.56-.9c.39-.72,.94-1.27,1.66-1.66,.72-.39,1.54-.58,2.46-.58Z" style="fill: #fd7314;"/>
  </g>
</svg>
