<?xml version="1.0" encoding="UTF-8"?>
<svg version="1.1" viewBox="0 -200 1403 2448" width="1080" height="1080" xmlns="http://www.w3.org/2000/svg">
<path transform="translate(297,959)" d="m0 0 6 1 41 16 42 16 43 16 42 15 42 14 41 12 36 9 36 7 31 4 32 2h25l32-2 30-4 36-7 44-11 39-12 36-12 29-10 49-18 52-20 41-16 5 1 33 17 19 10 28 15 31 16 19 10 28 15 31 16 22 12 37 19 19 10 28 15v2l-22 11-22 12-35 18-19 10-28 15-33 17-19 10-23 12-22 12-37 19-22 12-14 7-8-1-41-16-42-16-54-20-49-17-44-14-41-11-37-8-32-5-18-2-15-1h-47l-34 3-37 6-36 8-36 10-35 11-36 12-45 16-53 20-57 22-11 4-29-15-22-12-35-18-19-10-28-15-33-17-22-12-39-20-22-12-37-19-12-7 4-3 33-17 22-12 37-19 22-12 35-18 19-10 28-15 31-16 19-10 28-15z" fill="#900"/>
<path transform="translate(298,1346)" d="m0 0 27 10 41 16 48 18 44 16 47 16 47 14 40 10 37 7 33 4 14 1h51l32-3 37-6 31-7 38-10 41-13 50-17 49-18 55-21 41-16 7 1 31 16 19 10 28 15 31 16 19 10 28 15 31 16 19 10 28 15 33 17 22 12 5 3-3 3-37 19-19 10-28 15-33 17-19 10-28 15-33 17-22 12-37 19-22 12-16 8-5-1-52-20-45-17-49-18-43-15-45-14-41-11-32-7-31-5-29-3-23-1h-18l-35 2-30 4-37 7-36 9-47 14-59 20-49 18-99 38-5-1-25-13-22-12-37-19-19-10-28-15-33-17-19-10-28-15-31-16-19-10-28-15-6-3 3-3 35-18 22-12 35-18 22-12 37-19 19-10 28-15 31-16 19-10 28-15z" fill="#900"/>
<path transform="translate(297,1734)" d="m0 0 5 1 42 16 47 18 46 17 40 14 52 17 40 11 30 7 27 5 30 4 28 2h34l28-2 30-4 37-7 43-11 43-13 53-18 49-18 58-22 41-16 5-1 33 17 19 10 28 15 33 17 22 12 37 19 22 12 37 19 22 12 37 19 7 4-4 4-37 19-19 10-28 15-33 17-19 10-28 15-31 16-19 10-28 15-33 17-19 10-29-11-39-15-56-21-36-13-50-17-37-11-38-10-34-7-35-5-25-2h-47l-34 3-37 6-36 8-36 10-35 11-36 12-31 11-64 24-55 21-16 6-29-15-22-12-35-18-19-10-28-15-33-17-22-12-39-20-22-12-35-18-14-8 4-3 33-17 22-12 37-19 22-12 37-19 22-12 37-19 22-12 37-19 19-10z" fill="#900"/>
<path transform="translate(87)" d="m0 0h203l29 2 24 4 21 6 17 7 15 9 11 9 10 10 10 13 9 15 8 20 6 21 4 20 3 23 3 47v332l-2 36-3 27-5 28-6 21-9 21-10 16-11 13-11 11-13 9-15 8-16 6-25 6-24 3-15 1h-209l-6-3-4-4-1-3v-724l3-5 5-4zm106 87v570h75l18-2 13-4 12-7 8-8 8-14 4-10 5-23 3-28 1-20 1-40v-257l-1-41-2-31-3-23-5-20-8-16-7-9-10-8-11-5-15-3-12-1z" fill="#900"/>
<path transform="translate(951)" d="m0 0h95l8 4 3 5 1 4 1 562 2 23 4 21 6 16 7 11 5 6 10 7 11 5 12 3 10 1h9l16-2 13-4 11-6 8-7 7-10 6-13 4-15 3-20 1-13 1-565 3-7 4-4 5-2h95l8 4 4 8v552l-2 32-4 27-5 20-7 19-10 19-10 14-11 12-8 8-14 10-16 9-20 8-23 6-26 4-11 1h-50l-27-3-24-5-24-8-23-12-16-12-11-10-9-11-7-10-9-17-7-20-5-21-4-29-1-13-1-28v-541l3-8 6-4z" fill="#900"/>
<path transform="translate(520)" d="m0 0h357l7 3 4 4 1 3v75l-4 6-5 3h-118v639l-3 6-5 4-4 1h-103l-7-3-4-6-1-640-118-1-6-4-3-6v-73l3-6 6-4z" fill="#900"/>
</svg>
