<?xml version="1.0" encoding="UTF-8" standalone="no"?>
<!-- Uploaded to: SVG Repo, www.svgrepo.com, Generator: SVG Repo Mixer Tools -->

<svg
   fill="#000000"
   width="800px"
   height="800px"
   viewBox="0 0 512 512"
   version="1.1"
   id="svg14"
   sodipodi:docname="microRep.svg"
   inkscape:version="1.2.2 (732a01da63, 2022-12-09)"
   inkscape:export-filename="microRep_full.png"
   inkscape:export-xdpi="96"
   inkscape:export-ydpi="96"
   xmlns:inkscape="http://www.inkscape.org/namespaces/inkscape"
   xmlns:sodipodi="http://sodipodi.sourceforge.net/DTD/sodipodi-0.dtd"
   xmlns="http://www.w3.org/2000/svg"
   xmlns:svg="http://www.w3.org/2000/svg">
  <defs
     id="defs18">
    <rect
       x="212.50243"
       y="-338.98305"
       width="442.59661"
       height="642.86944"
       id="rect18025" />
    <rect
       x="212.50243"
       y="-338.98305"
       width="80.634365"
       height="24.122881"
       id="rect19641" />
    <rect
       x="212.50243"
       y="-338.98305"
       width="80.634365"
       height="24.122881"
       id="rect19789" />
  </defs>
  <sodipodi:namedview
     id="namedview16"
     pagecolor="#505050"
     bordercolor="#eeeeee"
     borderopacity="1"
     inkscape:showpageshadow="0"
     inkscape:pageopacity="0"
     inkscape:pagecheckerboard="0"
     inkscape:deskcolor="#505050"
     showgrid="false"
     inkscape:zoom="0.295"
     inkscape:cx="642.37288"
     inkscape:cy="835.59322"
     inkscape:window-width="1440"
     inkscape:window-height="890"
     inkscape:window-x="214"
     inkscape:window-y="1073"
     inkscape:window-maximized="1"
     inkscape:current-layer="svg14" />
  <title
     id="title2">ionicons-v5-i</title>
  <g
     id="g19781"
     inkscape:label="Logo"
     inkscape:export-filename="microRep_horizontal.png"
     inkscape:export-xdpi="9.1199999"
     inkscape:export-ydpi="9.1199999">
    <g
       id="g8939">
      <circle
         style="fill:#335359;stroke-width:0.72576;stroke-linecap:square;stroke-miterlimit:5;stroke-dashoffset:0.793701;paint-order:markers stroke fill;stroke:none;stroke-opacity:1;stroke-dasharray:none;fill-opacity:1"
         id="path299"
         cx="256"
         cy="256"
         r="256" />
      <circle
         style="display:inline;fill:#4b7a82;fill-opacity:1;stroke:none;stroke-width:0.659707;stroke-linecap:square;stroke-miterlimit:5;stroke-dasharray:none;stroke-dashoffset:0.793701;stroke-opacity:1;paint-order:markers stroke fill"
         id="circle5287"
         cx="256"
         cy="239.20953"
         r="232.70107" />
    </g>
    <g
       id="g8935"
       transform="matrix(0.79514324,0,0,0.79514324,52.455853,47.840711)"
       style="fill:#314f54;fill-opacity:1">
      <path
         d="m 63.28,202 a 15.29,15.29 0 0 1 -7.7,-2 14.84,14.84 0 0 1 -5.52,-20.46 C 69.34,147.36 128,72.25 256,72.25 c 55.47,0 104.12,14.57 144.53,43.29 33.26,23.57 51.9,50.25 60.78,63.1 a 14.79,14.79 0 0 1 -4,20.79 15.52,15.52 0 0 1 -21.24,-4 C 420,172.32 371,102 256,102 143.75,102 93,166.71 76.47,194.46 A 15,15 0 0 1 63.28,202 Z"
         id="path4"
         style="fill:#314f54;fill-opacity:1" />
      <path
         d="m 320.49,496 a 15.31,15.31 0 0 1 -3.79,-0.43 C 223.85,472.57 189.18,379.75 187.77,375.89 l -0.22,-0.85 c -0.76,-2.68 -19.39,-66.33 9.21,-103.61 13.11,-17 33.05,-25.72 59.38,-25.72 24.48,0 42.14,7.61 54.28,23.36 10,12.86 14,28.72 17.87,44 8.13,31.82 14,48.53 47.79,50.25 14.84,0.75 24.59,-7.93 30.12,-15.32 14.95,-20.15 17.55,-53 6.28,-82 C 398,228.57 346.61,158 256,158 217.32,158 181.78,170.43 153.28,193.79 129.69,213.14 111,240.46 102,268.54 85.31,320.82 107.2,403 107.41,403.75 A 14.83,14.83 0 0 1 96.54,422 15.39,15.39 0 0 1 77.8,411.4 c -1,-3.75 -24.38,-91.4 -5.1,-151.82 21,-65.47 85.81,-131.47 183.33,-131.47 45.07,0 87.65,15.32 123.19,44.25 27.52,22.5 50,52.72 61.76,82.93 14.95,38.57 10.94,81.86 -10.19,110.14 -14.08,18.86 -34.13,28.72 -56.34,27.65 -57.86,-2.9 -68.26,-43.29 -75.84,-72.75 -7.8,-30.22 -12.79,-44.79 -42.58,-44.79 -16.36,0 -27.85,4.5 -35,13.82 -9.75,12.75 -10.51,32.68 -9.43,47.14 a 152.44,152.44 0 0 0 5.1,29.79 c 2.38,6 33.37,82 107.59,100.39 a 14.88,14.88 0 0 1 11,18.11 15.36,15.36 0 0 1 -14.8,11.21 z"
         id="path6"
         style="fill:#314f54;fill-opacity:1" />
      <path
         d="m 201.31,489.14 a 15.5,15.5 0 0 1 -11.16,-4.71 c -37.16,-39 -58.18,-82.61 -66.09,-137.14 V 347 c -4.44,-36.1 2.06,-87.21 33.91,-122.35 23.51,-25.93 56.56,-39.11 98.06,-39.11 49.08,0 87.65,22.82 111.7,65.89 17.45,31.29 20.91,62.47 21,63.75 a 15.07,15.07 0 0 1 -13.65,16.4 15.26,15.26 0 0 1 -16.79,-13.29 v 0 A 154,154 0 0 0 340.43,265 c -18.64,-32.89 -47,-49.61 -84.51,-49.61 -32.4,0 -57.75,9.75 -75.19,29 -25.14,27.75 -30,70.5 -26.55,98.78 6.93,48.22 25.46,86.58 58.18,120.86 a 14.7,14.7 0 0 1 -0.76,21.11 15.44,15.44 0 0 1 -10.29,4 z"
         id="path8"
         style="fill:#314f54;fill-opacity:1" />
      <path
         d="m 372.5,446.18 c -32.5,0 -60.13,-9 -82.24,-26.89 -44.42,-35.79 -49.4,-94.08 -49.62,-96.54 a 15.270659,15.270659 0 0 1 30.45,-2.36 c 0.11,0.86 4.55,48.54 38.79,76 20.26,16.18 47.34,22.6 80.71,18.85 a 15.2,15.2 0 0 1 16.91,13.18 14.92,14.92 0 0 1 -13.44,16.5 187,187 0 0 1 -21.56,1.26 z"
         id="path10"
         style="fill:#314f54;fill-opacity:1" />
      <path
         d="M 398.18,48.79 C 385.5,40.54 340.54,16 256,16 167.26,16 122.19,43.11 112.22,50 a 11.59,11.59 0 0 0 -1.84,1.4 0.36,0.36 0 0 1 -0.22,0.1 14.87,14.87 0 0 0 -5.09,11.15 15.06,15.06 0 0 0 15.31,14.85 15.56,15.56 0 0 0 8.88,-2.79 c 0.43,-0.32 39.22,-28.82 126.77,-28.82 87.55,0 126.55,28.4 126.97,28.61 a 15.25,15.25 0 0 0 9.21,3 15.06,15.06 0 0 0 15.29,-14.89 14.9,14.9 0 0 0 -9.32,-13.82 z"
         id="path12"
         style="fill:#314f54;fill-opacity:1" />
    </g>
    <text
       xml:space="preserve"
       transform="matrix(9.7993454,0,0,9.7993454,-1948.0404,3146.1693)"
       id="text18023"
       style="font-style:italic;font-size:53.3333px;font-family:sans-serif;-inkscape-font-specification:'sans-serif Italic';text-align:justify;white-space:pre;shape-inside:url(#rect18025);display:inline;fill:#8cbfca;fill-opacity:1;stroke:#4b7a82;stroke-width:1.63276;stroke-linecap:round;stroke-linejoin:round;stroke-miterlimit:5;stroke-dasharray:none;stroke-dashoffset:0.793701;stroke-opacity:1;paint-order:markers stroke fill"><tspan
         x="212.50195"
         y="-290.45577"
         id="tspan337"><tspan
           style="font-style:normal;font-family:'Bodoni MT';-inkscape-font-specification:'Bodoni MT'"
           id="tspan335">µ</tspan></tspan></text>
  </g>
  <text
     xml:space="preserve"
     transform="matrix(10.961521,0,0,10.961521,-2235.3838,4243.041)"
     id="text19639"
     style="font-style:italic;font-size:15.881px;font-family:sans-serif;-inkscape-font-specification:'sans-serif Italic';text-align:justify;white-space:pre;shape-inside:url(#rect19641);display:inline;fill:#8cbfca;fill-opacity:1;stroke:#4b7a82;stroke-width:0.29193;stroke-linecap:round;stroke-linejoin:round;stroke-miterlimit:5;stroke-dasharray:none;stroke-dashoffset:0.793701;stroke-opacity:1;paint-order:markers stroke fill"
     inkscape:export-filename="microRep_vertical.png"
     inkscape:export-xdpi="38.400002"
     inkscape:export-ydpi="38.400002"><tspan
       x="212.50195"
       y="-324.53269"
       id="tspan341"><tspan
         style="font-style:normal;font-weight:bold;font-family:'Lobster 1.4';-inkscape-font-specification:'Lobster 1.4 Bold';stroke:#8cbfca"
         id="tspan339">µRep</tspan></tspan></text>
  <text
     xml:space="preserve"
     transform="matrix(33.630654,0,0,33.630654,-6556.7588,11466.297)"
     id="text19787"
     style="font-style:italic;font-size:9.09036px;font-family:sans-serif;-inkscape-font-specification:'sans-serif Italic';text-align:justify;white-space:pre;shape-inside:url(#rect19789);display:inline;fill:#4b7a82;fill-opacity:1;stroke:none;stroke-width:1.63276;stroke-linecap:round;stroke-linejoin:round;stroke-miterlimit:5;stroke-dasharray:none;stroke-dashoffset:0.793701;stroke-opacity:1;paint-order:markers stroke fill"
     inkscape:export-filename="microRep_horizontal.png"
     inkscape:export-xdpi="96"
     inkscape:export-ydpi="96"><tspan
       x="212.50195"
       y="-330.71133"
       id="tspan345"><tspan
         style="font-style:normal;font-weight:bold;font-family:'Lobster 1.4';-inkscape-font-specification:'Lobster 1.4 Bold'"
         id="tspan343">µRep-PyGUI</tspan></tspan></text>
</svg>
