<?xml version="1.0" encoding="UTF-8" standalone="no"?>
<!-- Created with Inkscape (http://www.inkscape.org/) -->

<svg
   xmlns:dc="http://purl.org/dc/elements/1.1/"
   xmlns:cc="http://creativecommons.org/ns#"
   xmlns:rdf="http://www.w3.org/1999/02/22-rdf-syntax-ns#"
   xmlns:svg="http://www.w3.org/2000/svg"
   xmlns="http://www.w3.org/2000/svg"
   xmlns:sodipodi="http://sodipodi.sourceforge.net/DTD/sodipodi-0.dtd"
   xmlns:inkscape="http://www.inkscape.org/namespaces/inkscape"
   version="1.1"
   id="svg2"
   width="313.24832"
   height="313.24832"
   viewBox="0 0 313.2483 313.24833"
   sodipodi:docname="cotinga_icon_faded_black_and_white.svg"
   inkscape:version="0.92.2 2405546, 2018-03-11"
   inkscape:export-filename="/home/nico/dev/piya/cotinga_icon.svg.png"
   inkscape:export-xdpi="11.032781"
   inkscape:export-ydpi="11.032781">
  <metadata
     id="metadata8">
    <rdf:RDF>
      <cc:Work
         rdf:about="">
        <dc:format>image/svg+xml</dc:format>
        <dc:type
           rdf:resource="http://purl.org/dc/dcmitype/StillImage" />
        <dc:title></dc:title>
      </cc:Work>
    </rdf:RDF>
  </metadata>
  <defs
     id="defs6">
    <clipPath
       clipPathUnits="userSpaceOnUse"
       id="clipPath869">
      <circle
         style="display:inline;opacity:1;fill:#999999;fill-opacity:1;stroke:none;stroke-width:0.34076923;stroke-miterlimit:4;stroke-dasharray:none;stroke-dashoffset:0;stroke-opacity:1"
         id="circle871"
         cx="586.5451"
         cy="379.97989"
         r="156.62416" />
    </clipPath>
    <clipPath
       clipPathUnits="userSpaceOnUse"
       id="clipPath873">
      <circle
         style="display:inline;opacity:1;fill:#999999;fill-opacity:1;stroke:none;stroke-width:0.34076923;stroke-miterlimit:4;stroke-dasharray:none;stroke-dashoffset:0;stroke-opacity:1"
         id="circle875"
         cx="586.5451"
         cy="379.97989"
         r="156.62416" />
    </clipPath>
    <clipPath
       clipPathUnits="userSpaceOnUse"
       id="clipPath877">
      <circle
         style="display:inline;opacity:1;fill:#999999;fill-opacity:1;stroke:none;stroke-width:0.34076923;stroke-miterlimit:4;stroke-dasharray:none;stroke-dashoffset:0;stroke-opacity:1"
         id="circle879"
         cx="586.5451"
         cy="379.97989"
         r="156.62416" />
    </clipPath>
    <clipPath
       clipPathUnits="userSpaceOnUse"
       id="clipPath881">
      <circle
         style="display:inline;opacity:1;fill:#999999;fill-opacity:1;stroke:none;stroke-width:0.34076923;stroke-miterlimit:4;stroke-dasharray:none;stroke-dashoffset:0;stroke-opacity:1"
         id="circle883"
         cx="586.5451"
         cy="379.97989"
         r="156.62416" />
    </clipPath>
    <clipPath
       clipPathUnits="userSpaceOnUse"
       id="clipPath885">
      <circle
         style="display:inline;opacity:1;fill:#999999;fill-opacity:1;stroke:none;stroke-width:0.34076923;stroke-miterlimit:4;stroke-dasharray:none;stroke-dashoffset:0;stroke-opacity:1"
         id="circle887"
         cx="586.5451"
         cy="379.97989"
         r="156.62416" />
    </clipPath>
    <clipPath
       clipPathUnits="userSpaceOnUse"
       id="clipPath889">
      <circle
         style="display:inline;opacity:1;fill:#999999;fill-opacity:1;stroke:none;stroke-width:0.34076923;stroke-miterlimit:4;stroke-dasharray:none;stroke-dashoffset:0;stroke-opacity:1"
         id="circle891"
         cx="586.5451"
         cy="379.97989"
         r="156.62416" />
    </clipPath>
    <clipPath
       clipPathUnits="userSpaceOnUse"
       id="clipPath893">
      <circle
         style="display:inline;opacity:1;fill:#999999;fill-opacity:1;stroke:none;stroke-width:0.34076923;stroke-miterlimit:4;stroke-dasharray:none;stroke-dashoffset:0;stroke-opacity:1"
         id="circle895"
         cx="586.5451"
         cy="379.97989"
         r="156.62416" />
    </clipPath>
    <clipPath
       clipPathUnits="userSpaceOnUse"
       id="clipPath897">
      <circle
         style="display:inline;opacity:1;fill:#999999;fill-opacity:1;stroke:none;stroke-width:0.34076923;stroke-miterlimit:4;stroke-dasharray:none;stroke-dashoffset:0;stroke-opacity:1"
         id="circle899"
         cx="586.5451"
         cy="379.97989"
         r="156.62416" />
    </clipPath>
    <clipPath
       clipPathUnits="userSpaceOnUse"
       id="clipPath901">
      <circle
         style="display:inline;opacity:1;fill:#999999;fill-opacity:1;stroke:none;stroke-width:0.34076923;stroke-miterlimit:4;stroke-dasharray:none;stroke-dashoffset:0;stroke-opacity:1"
         id="circle903"
         cx="586.5451"
         cy="379.97989"
         r="156.62416" />
    </clipPath>
  </defs>
  <sodipodi:namedview
     pagecolor="#ffffff"
     bordercolor="#666666"
     borderopacity="1"
     objecttolerance="10"
     gridtolerance="10"
     guidetolerance="10"
     inkscape:pageopacity="0"
     inkscape:pageshadow="2"
     inkscape:window-width="1870"
     inkscape:window-height="1012"
     id="namedview4"
     showgrid="false"
     inkscape:zoom="1.4142136"
     inkscape:cx="-35.532094"
     inkscape:cy="63.77415"
     inkscape:window-x="50"
     inkscape:window-y="40"
     inkscape:window-maximized="1"
     inkscape:current-layer="layer1"
     fit-margin-top="0"
     fit-margin-left="0"
     fit-margin-right="0"
     fit-margin-bottom="0" />
  <g
     inkscape:groupmode="layer"
     id="layer1"
     inkscape:label="Background"
     transform="translate(-429.92094,-223.35579)"
     style="display:inline;opacity:0.321">
    <circle
       style="display:inline;opacity:1;fill:#ececec;fill-opacity:1;stroke:none;stroke-width:0.34076923;stroke-miterlimit:4;stroke-dasharray:none;stroke-dashoffset:0;stroke-opacity:1"
       id="path860-5"
       cx="586.5451"
       cy="379.97995"
       r="156.62416" />
  </g>
  <g
     inkscape:groupmode="layer"
     id="layer3"
     inkscape:label="Layer 3"
     style="display:inline;opacity:0.32087912"
     transform="translate(-429.92094,-223.35579)">
    <path
       style="display:inline;opacity:1;fill:#999999;fill-opacity:1;stroke:none;stroke-width:2.75235009;stroke-miterlimit:4;stroke-dasharray:none;stroke-dashoffset:0;stroke-opacity:1"
       d="m 718.84081,443.15239 c -14.83609,-11.84132 -44.89915,-24.54978 -78.10169,-33.01567 l -6.68926,-1.70561 2.16949,-0.26526 c 2.70459,-0.33068 8.03513,-2.07742 10.18561,-3.33768 4.03423,-2.36422 7.17234,-6.92693 7.59753,-11.04656 l 0.19866,-1.92488 -2.80086,-2.66055 c -13.44949,-12.7757 -46.40966,-23.08369 -95.9945,-30.0214 -4.2757,-0.59824 -8.83988,-1.19467 -10.14261,-1.3254 l -2.3686,-0.2377 0.0183,-1.85575 c 0.0247,-2.50152 -1.15509,-4.72663 -4.28415,-8.08002 -5.10292,-5.46874 -15.71552,-12.53373 -30.04782,-20.00332 -2.78418,-1.45104 -5.10576,-2.66841 -5.15907,-2.70527 -0.21057,-0.1456 2.55183,-7.61949 3.87383,-10.48094 7.50033,-16.23444 19.8684,-27.90937 34.85764,-32.90411 7.36831,-2.45528 10.24095,-2.86399 20.12251,-2.86295 7.63405,8e-4 9.48361,0.11427 13.37853,0.82072 19.90629,3.61058 39.8695,12.19534 63.92356,27.489 9.57427,6.08736 12.57347,9.06628 18.97686,18.84853 5.7907,8.84626 13.25499,23.55928 26.50706,52.24859 14.69294,31.80864 24.07412,49.46497 33.21404,62.51214 1.51646,2.16473 2.71139,3.97311 2.6554,4.01861 -0.056,0.0455 -0.9967,-0.63152 -2.09049,-1.50452 z M 597.71088,361.71201 c 7.61895,-2.40835 11.38473,-9.2564 9.18088,-16.69537 -1.52054,-5.13248 -5.84224,-9.26969 -11.16958,-10.69275 -2.66587,-0.71211 -4.60696,-0.60144 -7.71026,0.4396 -4.55255,1.5272 -7.6796,3.91738 -9.40657,7.18996 -0.85649,1.62304 -0.96174,2.22006 -0.96199,5.457 -2.7e-4,3.48183 0.0576,3.75175 1.37788,6.42309 3.74268,7.57278 10.56227,10.44753 18.68964,7.87847 z"
       id="path835"
       inkscape:connector-curvature="0"
       clip-path="url(#clipPath901)" />
    <path
       style="display:inline;opacity:1;fill:#1f1c24;fill-opacity:1;stroke:none;stroke-width:3.89241076;stroke-miterlimit:4;stroke-dasharray:none;stroke-dashoffset:0;stroke-opacity:1"
       d="m 587.29913,360.20016 c -2.69517,-1.29341 -5.7594,-4.30592 -7.18604,-7.06474 -1.12396,-2.1735 -1.53216,-7.00725 -0.78335,-9.27616 0.82803,-2.50897 3.79277,-5.39508 7.16831,-6.97819 6.90708,-3.2394 14.89463,-0.4365 18.19481,6.38471 1.45722,3.01196 1.62682,8.24579 0.3478,10.73339 -2.1412,4.16449 -6.37492,6.69632 -11.97536,7.16145 -2.68603,0.22308 -3.62634,0.0665 -5.76617,-0.96046 z"
       id="path877"
       inkscape:connector-curvature="0"
       clip-path="url(#clipPath897)" />
    <path
       style="display:inline;opacity:1;fill:#333333;fill-opacity:1;stroke:none;stroke-width:3.89241076;stroke-miterlimit:4;stroke-dasharray:none;stroke-dashoffset:0;stroke-opacity:1"
       d="m 496.87721,417.49056 c -0.40307,-1.66329 -2.73367,-16.98218 -3.67592,-24.16148 -1.19835,-9.13069 -1.54618,-19.4694 -0.78515,-23.33764 0.80808,-4.10739 1.32357,-5.07643 5.11353,-9.61258 1.70401,-2.03951 3.29695,-4.06334 3.53987,-4.49742 0.39149,-0.69957 1.36431,-0.72094 8.56356,-0.18815 69.11851,5.1152 123.58158,18.35516 140.09186,34.05631 l 3.22623,3.06812 -0.66425,2.44761 c -1.21544,4.47854 -5.82955,8.73478 -11.21845,10.34835 -5.74459,1.72006 -9.6972,1.91603 -18.70499,0.92736 -12.04152,-1.32163 -46.90785,-1.32885 -59.86504,-0.0124 -22.26198,2.26185 -44.41458,6.2483 -60.2782,10.84732 -2.40013,0.69582 -4.52145,1.26513 -4.71406,1.26513 -0.1926,0 -0.47565,-0.51774 -0.62899,-1.15054 z"
       id="path875"
       inkscape:connector-curvature="0"
       clip-path="url(#clipPath893)" />
    <path
       style="display:inline;opacity:1;fill:#666666;fill-opacity:1;stroke:none;stroke-width:1.37617505;stroke-miterlimit:4;stroke-dasharray:none;stroke-dashoffset:0;stroke-opacity:1"
       d="m 536.92476,356.94584 c -8.18298,-0.95889 -20.36818,-2.08186 -30.17217,-2.78063 -2.77323,-0.19766 -5.05691,-0.3819 -5.07483,-0.40943 -0.0179,-0.0275 -0.26473,-0.53818 -0.54844,-1.13479 -0.6611,-1.39022 -2.60654,-3.34796 -4.47589,-4.50421 -0.7707,-0.4767 -2.31647,-1.22576 -3.43503,-1.66458 -3.5497,-1.39257 -7.88004,-3.7844 -11.28333,-6.23227 -1.66207,-1.19546 -4.76172,-4.10747 -4.76172,-4.47346 0,-0.26045 0.5896,-0.2632 4.26573,-0.0199 17.5766,1.16313 36.81841,5.87546 54.22015,13.27853 2.09203,0.88999 3.14337,1.25231 3.29242,1.13466 0.27717,-0.21877 1.85368,2.14067 2.39239,3.58052 0.36147,0.96611 0.4787,2.46036 0.25773,3.28492 -0.13176,0.49166 0.044,0.49389 -4.67701,-0.0593 z"
       id="path845"
       inkscape:connector-curvature="0"
       clip-path="url(#clipPath889)" />
    <path
       style="display:inline;opacity:1;fill:#666666;fill-opacity:1;stroke:none;stroke-width:1.37617505;stroke-miterlimit:4;stroke-dasharray:none;stroke-dashoffset:0;stroke-opacity:1"
       d="m 534.49122,347.25948 c -16.83094,-7.09239 -37.97913,-12.0511 -54.46361,-12.77034 l -2.93454,-0.12803 1.24361,-1.31755 c 1.7666,-1.87163 3.28482,-2.96145 5.97792,-4.29108 4.26308,-2.10477 8.02955,-2.8743 14.10169,-2.8811 l 3.79661,-0.004 3.70621,1.87069 c 11.272,5.6895 21.17308,11.73704 27.27679,16.66056 1.96683,1.58653 4.72576,4.14374 4.45203,4.1265 -0.0994,-0.006 -1.51996,-0.57569 -3.15671,-1.2654 z"
       id="path843"
       inkscape:connector-curvature="0"
       clip-path="url(#clipPath885)" />
    <path
       style="opacity:1;fill:#333333;fill-opacity:1;stroke:none;stroke-width:1.63633287;stroke-miterlimit:4;stroke-dasharray:none;stroke-dashoffset:0;stroke-opacity:1"
       d="m 705.21963,793.92481 c -2.24996,-0.18701 -13.52532,-1.04795 -25.05635,-1.9132 -45.47386,-3.41219 -61.0533,-6.28923 -77.3838,-14.29043 -42.92764,-21.03256 -97.42315,-91.54818 -146.64409,-189.75323 -8.76405,-17.48595 -9.20056,-18.67935 -10.15853,-27.7731 -3.65241,-34.67132 2.56051,-67.39517 18.65195,-98.241 l 5.21174,-9.99043 12.86196,-4.13217 c 16.08728,-5.16836 44.55027,-12.52141 57.34977,-14.81557 12.13493,-2.17504 30.01589,-2.53937 31.90705,-0.65011 1.74984,1.74807 1.68981,70.80314 -0.0833,95.82765 -2.64831,37.37644 -6.92053,66.0615 -12.5662,84.37341 -6.41008,20.79131 -6.34677,20.44547 -6.36478,34.77208 -0.014,11.148 0.42762,15.4673 2.29353,22.43123 4.81239,17.96072 12.75932,31.30893 27.15871,45.61762 25.80724,25.6447 66.21851,42.64339 124.78371,52.48933 l 17.30201,2.9088 3.87893,4.15842 c 6.72286,7.20727 6.49205,13.27313 -0.65917,17.32331 -4.07377,2.30724 -9.68658,2.721 -22.48315,1.65739 z"
       id="path851"
       inkscape:connector-curvature="0"
       clip-path="url(#clipPath881)" />
    <path
       style="opacity:1;fill:#1d2124;fill-opacity:1;stroke:none;stroke-width:0.28926551;stroke-miterlimit:4;stroke-dasharray:none;stroke-dashoffset:0;stroke-opacity:1"
       d="m 816.1798,1028.227 c -4.91954,-1.6991 -9.82828,-9.2315 -14.25728,-21.8777 -0.60548,-1.7288 -1.56085,-5.2285 -2.51703,-9.22031 -7.51327,-31.36604 -15.55709,-60.67308 -21.1354,-77.00527 -0.75899,-2.22217 -1.35405,-4.06593 -1.32236,-4.09725 0.0875,-0.0865 3.15499,5.17341 10.22818,17.53869 10.70504,18.71444 12.67483,21.79442 15.92377,24.89844 2.35495,2.2499 3.90557,2.8173 6.0862,2.22703 3.37538,-0.91367 5.39764,-4.30212 6.0479,-10.13366 0.10945,-0.98152 0.22523,-1.81083 0.25731,-1.8429 0.0321,-0.0321 0.3665,0.41071 0.74318,0.98396 3.38568,5.15252 8.35907,11.17958 11.17419,13.54158 3.21012,2.69342 5.27109,3.21941 6.95773,1.77571 2.56144,-2.1925 2.9695,-8.94774 1.10623,-18.31325 -0.20449,-1.0278 -0.34368,-1.89685 -0.30931,-1.93121 0.0344,-0.0344 0.58801,0.76589 1.23033,1.77834 5.65323,8.91085 10.55477,14.24916 13.48705,14.68888 2.73332,0.40989 4.04038,-2.16519 4.59433,-9.05145 0.68081,-8.46339 -0.92609,-25.96169 -4.14935,-45.18425 -0.38473,-2.29443 -0.67832,-4.19353 -0.65242,-4.22023 0.13827,-0.14255 8.73471,16.43422 12.26022,23.64177 15.13959,30.95135 23.2392,52.33178 24.9058,65.74346 0.33144,2.66721 0.25169,6.455 -0.17007,8.07792 -0.81934,3.1528 -2.19016,4.5553 -4.92271,5.0367 -2.51156,0.4424 -6.58777,-0.6842 -11.68185,-3.2287 -1.71693,-0.8576 -3.14514,-1.5267 -3.17381,-1.487 -0.0287,0.04 -0.28259,0.6579 -0.56428,1.3736 -2.48169,6.3056 -7.51122,12.181 -11.81461,13.8015 -2.55553,0.9623 -5.35808,1.1182 -7.90188,0.4395 -2.66059,-0.7098 -6.50975,-2.9752 -9.30013,-5.4735 -1.08576,-0.9721 -1.31572,-1.1027 -1.77898,-1.01 -0.45948,0.092 -0.61366,0.295 -1.13051,1.4899 -3.93954,9.1072 -9.1499,15.6655 -13.52694,17.0263 -1.46315,0.4549 -3.39933,0.4604 -4.6935,0.013 z"
       id="path868"
       inkscape:connector-curvature="0"
       clip-path="url(#clipPath877)" />
    <path
       style="opacity:1;fill:#999999;fill-opacity:1;stroke:none;stroke-width:0.70710677;stroke-miterlimit:4;stroke-dasharray:none;stroke-dashoffset:0;stroke-opacity:1"
       d="m 827.29455,961.05952 c -1.88982,-1.76771 -5.61502,-6.29114 -8.27821,-10.05207 l -4.84216,-6.83806 -0.40148,4.92555 c -0.47933,5.88058 -2.08887,9.32122 -4.6627,9.9672 -2.91399,0.73137 -5.15678,-1.12075 -9.78506,-8.0806 -5.16744,-7.77061 -20.60412,-34.43583 -25.45585,-43.97225 -1.94454,-3.82214 -4.12801,-7.60057 -4.85215,-8.39651 l -1.31661,-1.44717 -2.30241,2.44127 c -1.86744,1.98006 -2.82815,2.44127 -5.08529,2.44127 -11.579,0 -31.64124,-23.00176 -56.6525,-64.95322 l -7.73914,-12.98087 -6.28078,-3.54021 c -9.33718,-5.26296 -29.95337,-15.51439 -38.8077,-19.29718 -10.15792,-4.33971 -24.63209,-9.17052 -34.12948,-11.39083 -13.59859,-3.17909 -29.89232,-3.09554 -36.3805,0.18656 l -1.92063,0.97156 -21.42398,-21.39577 c -22.0357,-22.00667 -28.33388,-29.34907 -43.82779,-51.09425 -27.31933,-38.34177 -47.81085,-78.02215 -58.06044,-112.42998 -2.99258,-10.04608 -6.85786,-25.89913 -6.8308,-28.01586 0.007,-0.53653 3.95504,6.69918 8.77374,16.07936 51.88934,101.00881 105.18176,168.10763 148.62074,187.12374 6.0862,2.66433 18.66085,6.39234 25.38015,7.52446 11.66353,1.96514 40.03798,4.56946 74.50333,6.83819 l 17.22768,1.13403 4.69263,-2.35741 c 9.14399,-4.59365 10.3415,-11.21007 3.57517,-19.75327 -3.6977,-4.66873 -6.90046,-6.04406 -17.97708,-7.71974 C 613.1037,751.85671 557.50002,711.38005 554.54576,651.5906 c -0.56943,-11.52422 0.52725,-19.77072 4.02468,-30.26385 7.61189,-22.83749 12.09173,-49.79752 14.8046,-89.09545 1.36741,-19.80793 2.21478,-59.14913 1.72609,-80.13699 l -0.49117,-21.09358 -1.84025,-0.79924 c -1.10503,-0.47992 -6.07788,-0.79229 -12.44687,-0.78184 -8.36572,0.0137 -12.77278,0.41321 -20.85965,1.89085 -13.86018,2.53255 -32.5317,7.22666 -51.17549,12.86574 -8.50663,2.57296 -15.59387,4.55083 -15.74943,4.39528 -0.64473,-0.64474 10.29158,-14.08038 16.90373,-20.76682 l 7.11943,-7.19941 7.83908,-2.15729 c 26.02292,-7.16145 50.91643,-10.5857 81.21351,-11.17138 27.68364,-0.53517 38.76602,0.35308 54.61189,4.37712 29.072,7.3828 55.74417,18.00872 71.9375,28.65916 11.26036,7.406 38.60669,33.75052 50.36811,48.52292 39.32218,49.38885 62.89042,118.06173 70.70863,206.03004 2.07688,23.36838 2.66449,39.14755 2.58062,69.29646 -0.0711,25.55334 -1.00541,56.15333 -1.38686,45.42141 -0.41679,-11.7257 -8.60375,-66.05788 -16.43371,-109.06102 -5.4481,-29.92169 -8.07059,-40.99361 -11.72389,-49.49747 -19.86188,-46.23273 -65.20489,-109.53979 -111.94124,-156.29026 -15.06091,-15.06546 -26.88206,-25.00235 -33.7986,-28.41118 -4.02769,-1.98505 -4.68561,-2.11323 -7.11342,-1.38584 -3.3897,1.01558 -5.63842,3.40138 -6.74802,7.15935 l -0.87091,2.94958 -3.32167,-10.47545 c -4.44863,-14.02951 -6.12446,-22.41765 -6.11902,-30.62798 0.006,-9.50377 2.7261,-14.84925 7.55535,-14.84925 0.96009,0 1.61043,-0.42832 1.61043,-1.06066 0,-1.50579 -3.40115,-1.35291 -6.067,0.27272 -6.18164,3.76956 -7.18093,16.56797 -2.70424,34.63469 5.0126,20.22953 10.66126,32.56948 61.21887,133.73756 67.66069,135.39211 114.88902,220.34258 135.62535,243.95184 2.87918,3.27808 14.56628,27.88098 17.65157,37.1589 3.12022,9.38296 4.27313,17.25601 3.29243,22.48357 -0.54284,2.89356 -3.41967,6.65666 -5.77291,7.55136 -1.4326,0.54467 -1.52748,0.86876 -0.96536,3.29788 2.72548,11.77785 6.00778,43.07869 5.2868,50.41637 -0.43143,4.39086 -1.55679,8.49246 -2.33009,8.49246 -2.39983,0 -9.1043,-7.54139 -14.30143,-16.08668 -1.24178,-2.04177 -2.54869,-3.71231 -2.90423,-3.71231 -0.83816,0 -0.83278,0.0857 0.41432,6.60294 1.2162,6.35576 1.37364,12.98758 0.37093,15.62489 -1.0215,2.68678 -3.12754,2.26847 -7.04967,-1.40022 z"
       id="path939"
       inkscape:connector-curvature="0"
       clip-path="url(#clipPath873)" />
    <path
       style="opacity:1;fill:#666666;fill-opacity:1;stroke:none;stroke-width:1.41421354;stroke-miterlimit:4;stroke-dasharray:none;stroke-dashoffset:0;stroke-opacity:1"
       d="M 826.05895,816.09101 C 800.39968,779.35478 758.87564,702.61624 691.89356,568.14657 663.54712,511.23976 648.1662,478.85864 648.1662,476.08832 c 0,-4.82983 3.73242,-8.9545 8.10295,-8.9545 4.55121,0 19.23704,11.80297 37.84914,30.41927 40.96579,40.97505 81.83829,96.5773 103.94693,141.40767 9.35182,18.96295 9.97315,20.87391 14.71422,45.25484 11.49423,59.10905 23.22841,140.71425 20.23358,140.71425 -0.4292,0 -3.55853,-3.97748 -6.95407,-8.83884 z"
       id="path941"
       inkscape:connector-curvature="0"
       clip-path="url(#clipPath869)" />
  </g>
</svg>
