<?xml version="1.0" encoding="UTF-8" standalone="no"?>
<!-- Created with Inkscape (http://www.inkscape.org/) -->

<svg
   xmlns:dc="http://purl.org/dc/elements/1.1/"
   xmlns:cc="http://creativecommons.org/ns#"
   xmlns:rdf="http://www.w3.org/1999/02/22-rdf-syntax-ns#"
   xmlns:svg="http://www.w3.org/2000/svg"
   xmlns="http://www.w3.org/2000/svg"
   xmlns:sodipodi="http://sodipodi.sourceforge.net/DTD/sodipodi-0.dtd"
   xmlns:inkscape="http://www.inkscape.org/namespaces/inkscape"
   width="8mm"
   height="8mm"
   viewBox="0 0 8.0000015 7.9999995"
   version="1.1"
   id="svg8"
   inkscape:version="0.92.5 (2060ec1f9f, 2020-04-08)"
   sodipodi:docname="favicon.svg"
   inkscape:export-filename="/home/max/Notes/Projects/Cordage/icon.png"
   inkscape:export-xdpi="406.39999"
   inkscape:export-ydpi="406.39999">
  <defs
     id="defs2" />
  <sodipodi:namedview
     id="base"
     pagecolor="#ffffff"
     bordercolor="#666666"
     borderopacity="1.0"
     inkscape:pageopacity="0"
     inkscape:pageshadow="2"
     inkscape:zoom="22.627416"
     inkscape:cx="13.050156"
     inkscape:cy="17.552658"
     inkscape:document-units="mm"
     inkscape:current-layer="g904"
     showgrid="false"
     inkscape:snap-global="false"
     fit-margin-left="0.1"
     fit-margin-top="0.1"
     fit-margin-bottom="0.1"
     fit-margin-right="0.1"
     inkscape:window-width="1920"
     inkscape:window-height="1016"
     inkscape:window-x="0"
     inkscape:window-y="27"
     inkscape:window-maximized="1"
     showguides="true"
     inkscape:guide-bbox="true">
    <sodipodi:guide
       position="4.0000001,13.984877"
       orientation="1,0"
       id="guide855"
       inkscape:locked="false"
       inkscape:label=""
       inkscape:color="rgb(0,0,255)" />
    <sodipodi:guide
       position="-1.1225322,4.0000001"
       orientation="0,1"
       id="guide857"
       inkscape:locked="false"
       inkscape:label=""
       inkscape:color="rgb(0,0,255)" />
  </sodipodi:namedview>
  <metadata
     id="metadata5">
    <rdf:RDF>
      <cc:Work
         rdf:about="">
        <dc:format>image/svg+xml</dc:format>
        <dc:type
           rdf:resource="http://purl.org/dc/dcmitype/StillImage" />
        <dc:title></dc:title>
      </cc:Work>
    </rdf:RDF>
  </metadata>
  <g
     inkscape:label="Layer 1"
     inkscape:groupmode="layer"
     id="layer1"
     transform="translate(-50.938759,-173.97911)">
    <g
       id="g904"
       transform="rotate(-180,91.028431,160.16062)">
      <path
         style="fill:none;stroke:#353535;stroke-width:0.37887537;stroke-linecap:butt;stroke-linejoin:miter;stroke-miterlimit:4;stroke-dasharray:none;stroke-opacity:1"
         d="m 129.27423,142.65289 c 0.0745,-0.29255 0.0698,-0.50074 0.0611,-0.71037 l 1.11417,-0.46682 c 0.16168,-0.34184 0.0785,-0.67187 -0.31556,-0.67262 l -1.0411,0.39138 c -0.49318,-0.68411 -1.20217,-0.5055 -1.87163,-0.41062 -0.86943,-0.88088 -1.61258,-0.53085 -2.29445,0.2072 l -0.93019,-0.0804 c -0.51986,-0.0313 -0.25177,0.61686 -0.1993,0.64528 l 0.92054,0.18234 0.0682,0.87145 -1.12093,0.30304 c -0.0777,0.20117 -0.17202,0.44768 0.18035,0.66337 0.40198,-0.071 0.7963,-0.21105 1.20753,-0.19878 0.72702,1.13062 1.50127,0.62024 2.09651,0.23475 1.01532,0.36763 1.39286,0.1828 1.79283,-0.22176 0.46627,0.11673 0.94158,0.31799 1.42843,0.44913 0.40151,-0.14143 0.33875,-0.63741 0.28214,-0.7168 z"
         id="path871"
         inkscape:connector-curvature="0"
         sodipodi:nodetypes="ccccccccccccccccccc" />
      <path
         style="fill:none;stroke:#353535;stroke-width:0.37887537;stroke-linecap:butt;stroke-linejoin:miter;stroke-miterlimit:4;stroke-dasharray:none;stroke-opacity:1"
         d="m 126.91918,142.69247 -1.3315,-0.14519 c -0.13837,-0.26751 -0.0787,-0.5358 -0.0704,-0.76194 1.22212,-0.0267 0.89102,-0.0866 1.35309,-0.11331 0.37076,0.37004 0.83979,0.5568 1.66409,0.48662 0.0148,0.12469 -0.0131,0.14823 -0.0379,0.27718 -0.10461,-0.0161 -1.05877,-0.34093 -1.57732,0.25664 z"
         id="path876"
         inkscape:connector-curvature="0"
         sodipodi:nodetypes="cccccccc" />
      <g
         id="g865"
         transform="matrix(0.55679476,0,0,0.55700997,58.643213,60.74481)">
        <path
           sodipodi:nodetypes="cssssssc"
           inkscape:connector-curvature="0"
           id="path837"
           d="m 128.72439,148.44387 c -1.59303,-0.61809 -4.08045,-1.36455 -4.55255,-1.23141 -1.13559,0.32025 -1.99157,1.76075 -3.23858,1.6414 -0.74234,-0.0711 -1.22238,-1.07224 -1.47614,-2.05229 -0.16535,-0.63862 -0.21079,-2.06042 0.48016,-2.6756 0.73127,-0.65108 1.12037,-0.76937 1.65896,-0.56022 1.16267,0.45148 0.57013,0.40107 2.16778,1.61838 1.16536,0.88794 3.82144,-0.43348 4.64759,-0.73901"
           style="fill:none;stroke:#397ea5;stroke-width:1.25;stroke-linecap:round;stroke-linejoin:miter;stroke-miterlimit:4;stroke-dasharray:none;stroke-opacity:1" />
        <path
           sodipodi:nodetypes="cssssc"
           inkscape:connector-curvature="0"
           id="path835"
           d="m 117.27431,148.02527 c 1.24956,-0.51598 3.96302,-0.55928 5.22552,-0.21498 1.24958,0.34079 2.08735,1.15796 3.14194,0.15711 0.63769,-0.60521 0.82876,-2.41586 0.28112,-3.12538 -0.69711,-0.90317 -1.71322,-0.62229 -3.08406,-0.34727 -1.75833,0.35277 -3.82331,0.35309 -5.41569,0.0248"
           style="fill:none;stroke:#bb7015;stroke-width:1.25;stroke-linecap:round;stroke-linejoin:miter;stroke-miterlimit:4;stroke-dasharray:none;stroke-opacity:1" />
        <path
           sodipodi:nodetypes="cc"
           inkscape:connector-curvature="0"
           id="path839"
           d="m 120.90881,148.84679 c 2.09756,0.19994 1.84535,-2.08094 3.66493,-1.64042"
           style="fill:none;stroke:#397ea5;stroke-width:1.25;stroke-linecap:round;stroke-linejoin:miter;stroke-miterlimit:4;stroke-dasharray:none;stroke-opacity:1" />
        <path
           sodipodi:nodetypes="cc"
           inkscape:connector-curvature="0"
           id="path850"
           d="m 124.79189,145.46678 c -2.52011,-0.007 -1.66917,-2.20036 -3.70801,-1.99072"
           style="fill:none;stroke:#397ea5;stroke-width:1.25;stroke-linecap:round;stroke-linejoin:miter;stroke-miterlimit:4;stroke-dasharray:none;stroke-opacity:1" />
      </g>
    </g>
  </g>
</svg>
